<svg width="42" height="42" viewBox="0 0 42 42" fill="none" xmlns="http://www.w3.org/2000/svg">
<g clip-path="url(#clip0_274_3438)">
<path d="M39.2002 36.4V7.6006C40.4327 7.28238 41.2955 6.17289 41.3002 4.9V2.8C41.3002 1.2536 40.0466 0 38.5002 0H28.7002C27.1538 0 25.9002 1.2536 25.9002 2.8V4.9C25.905 6.17289 26.7678 7.28238 28.0002 7.6006V15.0108C26.1443 12.4195 23.9413 10.0953 21.4531 8.1032C20.7812 7.57092 19.8325 7.56714 19.1564 8.0941C17.0537 9.76577 15.1511 11.6747 13.4864 13.783C12.2268 11.5645 10.5593 9.60393 8.57171 8.0045C8.06547 7.60165 7.34853 7.60025 6.84064 8.001C5.60444 8.9712 -0.474363 14.1078 0.897638 19.8954C1.56595 22.5963 3.77405 24.6427 6.51794 25.1041C7.3787 25.2483 8.25888 25.2297 9.11281 25.0495C9.1399 25.8042 9.24049 26.5544 9.41311 27.2895C10.505 31.5851 14.037 34.8263 18.4102 35.546C19.0276 35.6475 19.6521 35.699 20.2778 35.7C22.9544 35.7062 25.5457 34.759 27.5872 33.0281C27.7328 32.9042 27.8623 32.7663 28.0002 32.6361V36.4C28.0002 39.4928 30.5075 42 33.6002 42C36.693 42 39.2002 39.4928 39.2002 36.4ZM27.3002 4.9V2.8C27.3002 2.0268 27.9271 1.4 28.7002 1.4H38.5002C39.2734 1.4 39.9002 2.0268 39.9002 2.8V4.9C39.9002 5.6732 39.2734 6.3 38.5002 6.3H28.7002C27.9271 6.3 27.3002 5.6732 27.3002 4.9ZM29.4002 7.7H37.8002V9.8H35.0002C34.6137 9.8 34.3002 10.1134 34.3002 10.5C34.3002 10.8866 34.6137 11.2 35.0002 11.2H37.8002V13.3H35.0002C34.6137 13.3 34.3002 13.6134 34.3002 14C34.3002 14.3866 34.6137 14.7 35.0002 14.7H37.8002V16.8H35.0002C34.6137 16.8 34.3002 17.1134 34.3002 17.5C34.3002 17.8866 34.6137 18.2 35.0002 18.2H37.8002V20.3H35.0002C34.6137 20.3 34.3002 20.6134 34.3002 21C34.3002 21.3866 34.6137 21.7 35.0002 21.7H37.8002V23.8H31.4736C31.2689 21.4898 30.5612 19.2523 29.4002 17.2445V7.7ZM6.74474 23.7237C4.55633 23.357 2.79438 21.7262 2.25984 19.5727C1.05934 14.5082 7.01981 9.639 7.70021 9.1035C8.27351 9.555 13.3002 13.6465 13.3002 18.2035C13.3018 20.5682 11.8166 22.6785 9.59021 23.4752L9.57061 23.4822C8.66446 23.8013 7.69195 23.8844 6.74474 23.7237ZM26.68 31.9613C24.4525 33.8425 21.5101 34.6483 18.6349 34.1642C14.8179 33.5393 11.7329 30.7138 10.776 26.9661C10.5936 26.1934 10.5034 25.4017 10.5072 24.6078C13.0593 23.501 14.7078 20.9817 14.7002 18.2C14.6882 17.1861 14.4972 16.1822 14.136 15.2348C15.8308 12.9795 17.8068 10.9502 20.016 9.1959C20.1868 9.06794 20.4224 9.07144 20.5893 9.2043C23.5619 11.5639 26.0899 14.4344 28.0548 17.6813C29.3208 19.7705 30.0253 22.1514 30.1002 24.5931C30.0985 27.4324 28.8476 30.1272 26.68 31.9613ZM29.4002 36.4V31.0492C30.6353 29.3377 31.3528 27.3075 31.4673 25.2H37.8002V27.3H35.0002C34.6137 27.3 34.3002 27.6134 34.3002 28C34.3002 28.3866 34.6137 28.7 35.0002 28.7H37.8002V30.8H35.0002C34.6137 30.8 34.3002 31.1134 34.3002 31.5C34.3002 31.8866 34.6137 32.2 35.0002 32.2H37.8002V36.4C37.8002 38.7196 35.9199 40.6 33.6002 40.6C31.2806 40.6 29.4002 38.7196 29.4002 36.4Z" fill="#F4A884"/>
<path d="M7.19813 20.9601C6.12098 20.7834 5.25115 19.9848 4.98332 18.9266C4.9327 18.676 4.74948 18.4729 4.50539 18.3969C4.2613 18.3209 3.99517 18.384 3.81118 18.5615C3.62718 18.7389 3.55459 19.0026 3.62182 19.2493C4.02242 20.8553 5.33844 22.0702 6.97132 22.3412C7.00899 22.3479 7.04714 22.3512 7.08543 22.351C7.4502 22.3511 7.75386 22.0711 7.78333 21.7076C7.8128 21.344 7.55814 21.0188 7.19813 20.9601Z" fill="#F4A884"/>
<path d="M19.0814 31.4019C16.3737 30.9672 14.182 28.9675 13.5017 26.3108C13.4076 25.9397 13.0328 25.713 12.6604 25.8021C12.2881 25.8911 12.0563 26.2627 12.1402 26.6363C12.9556 29.8397 15.5932 32.2543 18.856 32.7844C18.8935 32.7906 18.9314 32.7936 18.9694 32.7935C19.3357 32.7955 19.6417 32.5148 19.6711 32.1497C19.7005 31.7845 19.4434 31.4585 19.0814 31.4019Z" fill="#F4A884"/>
<path d="M34.3005 38.5001C34.3005 38.1135 33.9871 37.8001 33.6005 37.8001C33.2216 37.8241 32.8507 37.6838 32.5827 37.4149C32.3146 37.146 32.1754 36.7747 32.2005 36.3959C32.1993 36.0093 31.885 35.6969 31.4984 35.698C31.1118 35.6992 30.7993 36.0135 30.8005 36.4001C30.7786 37.1492 31.0665 37.8742 31.5964 38.4041C32.1263 38.934 32.8513 39.222 33.6005 39.2001C33.9871 39.2001 34.3005 38.8867 34.3005 38.5001Z" fill="#F4A884"/>
</g>
<defs>
<clipPath id="clip0_274_3438">
<rect width="42" height="42" fill="white"/>
</clipPath>
</defs>
</svg>
