<svg width="50" height="50" viewBox="0 0 50 50" fill="none" xmlns="http://www.w3.org/2000/svg">
<path d="M43.7541 8.44311C42.0195 8.93504 40.2273 9.18671 38.4263 9.19128C33.1806 9.19128 29.4113 7.0284 27.198 2.70104C26.7195 1.71567 26.017 0.85994 25.1485 0.204485C24.9391 0.0467817 24.6783 -0.023812 24.4193 0.0071198C24.1603 0.0380516 23.9226 0.168181 23.7549 0.370927L22.0373 2.45059C20.0716 4.9222 17.4634 6.78565 14.5081 7.8299C11.5527 8.87415 8.36841 9.05747 5.31574 8.3591C5.16341 8.31937 5.00421 8.31488 4.84994 8.34596C4.69567 8.37705 4.55024 8.44291 4.42441 8.5387C4.29858 8.63448 4.19558 8.75774 4.12296 8.89936C4.05035 9.04098 4.00999 9.19735 4.00488 9.35693V31.241C4.00488 37.8145 8.67675 42.5563 14.2504 45.8026C17.4116 47.5821 20.7677 48.9784 24.2499 49.9628C24.4139 49.9628 24.5778 50.046 24.741 49.9628C28.2329 49.0066 31.5926 47.6089 34.7413 45.8026C40.315 42.5532 44.9884 37.8145 44.9884 31.241V9.43936C45.014 9.27843 44.997 9.11347 44.939 8.96145C44.8811 8.80942 44.7842 8.67581 44.6585 8.57436C44.5328 8.47291 44.3828 8.40727 44.2239 8.3842C44.0649 8.36114 43.9028 8.38147 43.7541 8.44311ZM43.0179 31.2418C43.0179 36.1509 39.9028 40.3942 33.8373 43.9718C30.8931 45.6011 27.7886 46.912 24.5747 47.8831C21.3343 46.9907 18.2215 45.676 15.3138 43.9718C9.24829 40.3942 6.13316 36.1509 6.13316 31.2418V10.6892C7.13308 10.8758 8.14907 10.9592 9.16553 10.9381C11.9542 10.9555 14.71 10.3276 17.2239 9.10205C19.7378 7.87653 21.9436 6.08561 23.6737 3.8653L24.6583 2.61782C24.9404 2.90273 25.1632 3.24235 25.3133 3.61645C28.5096 9.94025 34.166 11.2717 38.3452 11.2717C39.9156 11.27 41.4816 11.1027 43.0179 10.7724V31.241V31.2418Z" fill="#F4A884"/>
<path d="M15.3936 26.5126C15.3936 28.3759 15.9391 30.1972 16.9605 31.7452C17.982 33.2933 19.4335 34.4984 21.1308 35.2075C22.8282 35.9167 24.6948 36.0979 26.4938 35.7282C28.2928 35.3586 29.943 34.4546 31.235 33.1312C32.5271 31.8078 33.4027 30.1245 33.7507 28.295C34.0987 26.4655 33.9034 24.5723 33.1896 22.8557C32.4759 21.1391 31.2758 19.6765 29.7417 18.6534C28.2077 17.6304 26.4088 17.0931 24.5734 17.1098C22.1303 17.129 19.7938 18.1285 18.074 19.8901C16.3542 21.6517 15.3906 24.0324 15.3936 26.5126ZM31.7889 26.5126C31.7889 27.9608 31.3658 29.3765 30.5733 30.5807C29.7807 31.7848 28.6542 32.7234 27.3363 33.2776C26.0183 33.8318 24.568 33.9769 23.1688 33.6944C21.7696 33.412 20.4843 32.7146 19.4755 31.6907C18.4667 30.6667 17.7797 29.362 17.5013 27.9417C17.2229 26.5213 17.3656 25.049 17.9114 23.711C18.4572 22.373 19.3816 21.2293 20.5677 20.4246C21.7538 19.62 23.1483 19.1904 24.5749 19.1902C26.487 19.1934 28.3197 19.9659 29.6717 21.3384C31.0236 22.711 31.7844 24.5716 31.7873 26.5126H31.7889Z" fill="#F4A884"/>
<path d="M22.197 26.7614C22.0013 26.5629 21.736 26.4514 21.4593 26.4515C21.1827 26.4516 20.9173 26.5632 20.7218 26.7618C20.5262 26.9605 20.4164 27.2299 20.4165 27.5107C20.4166 27.7915 20.5266 28.0608 20.7222 28.2594L22.7716 30.339C22.873 30.4557 23.0002 30.5461 23.143 30.6026C23.2857 30.6591 23.4397 30.6802 23.5921 30.664C23.7445 30.6477 23.8908 30.5948 24.0189 30.5094C24.147 30.4241 24.2531 30.3089 24.3283 30.1734L28.4264 23.9328C28.5786 23.7121 28.6382 23.4391 28.592 23.1738C28.5459 22.9084 28.3979 22.6726 28.1805 22.5181C27.9631 22.3636 27.6941 22.3031 27.4328 22.3499C27.1714 22.3968 26.9391 22.547 26.7869 22.7678L23.4251 27.9265L22.197 26.7614Z" fill="#F4A884"/>
</svg>
