<svg width="50" height="50" viewBox="0 0 50 50" fill="none" xmlns="http://www.w3.org/2000/svg">
<g clip-path="url(#clip0_274_559)">
<path d="M23.5613 50.0014C20.095 50.0014 19.4711 46.7639 18.7405 43.0156C18.3543 40.6723 17.7408 38.3724 16.9087 36.1488L18.6192 35.4561C19.4991 37.7873 20.1479 40.1997 20.5563 42.6585C21.3309 46.6435 21.7908 48.1493 23.5653 48.1493C25.2838 48.1493 26.0757 44.8944 26.7756 42.0233C27.5756 38.723 28.3381 35.6045 30.7752 35.6045V37.4553C29.7926 37.4553 29.1167 40.2314 28.5741 42.4606C27.7075 45.9963 26.7276 50.0014 23.5613 50.0014Z" fill="#F4A884"/>
<path d="M37.9681 49.9974C34.8018 49.9974 33.8259 45.9856 32.966 42.4593C32.4233 40.2287 31.7474 37.4539 30.7649 37.4539V35.6032C33.1966 35.6032 33.9552 38.7203 34.7644 42.022C35.4644 44.8931 36.2563 48.1493 37.9747 48.1493C39.7479 48.1493 40.2092 46.6435 40.9838 42.6599C41.4664 39.5527 42.388 36.5305 43.7208 33.6842C46.6005 27.9982 48.159 23.8741 48.159 18.3659C48.159 13.3258 45.1913 10.317 40.2198 10.317C38.1675 10.3103 36.1322 10.6914 34.2205 11.4403L33.6085 9.70185C35.7158 8.87786 37.9595 8.4609 40.2212 8.47291C46.1645 8.47291 50.0041 12.359 50.0041 18.3686C50.0041 24.2191 48.303 28.723 45.366 34.5253C44.1083 37.2179 43.2422 40.0776 42.7942 43.0169C42.0596 46.7626 41.429 49.9974 37.9681 49.9974ZM15.2612 35.9415H10.6817C10.437 35.9415 10.2023 35.844 10.0293 35.6704C9.85629 35.4969 9.75909 35.2615 9.75909 35.0161V33.1185C9.17352 32.9338 8.60519 32.698 8.06061 32.4138L6.72741 33.7511C6.55443 33.9243 6.31996 34.0217 6.07548 34.0217C5.83101 34.0217 5.59653 33.9243 5.42355 33.7511L2.18657 30.5042C2.10086 30.4184 2.03288 30.3164 1.98649 30.2042C1.9401 30.092 1.91622 29.9718 1.91622 29.8503C1.91622 29.7288 1.9401 29.6085 1.98649 29.4963C2.03288 29.3841 2.10086 29.2822 2.18657 29.1964L3.51976 27.8591C3.2366 27.3123 3.00151 26.7418 2.81716 26.1541H0.924033C0.80288 26.1541 0.682913 26.1302 0.570982 26.0837C0.45905 26.0372 0.357347 25.969 0.271679 25.8831C0.18601 25.7971 0.118055 25.6951 0.0716912 25.5829C0.0253278 25.4706 0.00146484 25.3502 0.00146484 25.2287V20.6379C0.00146484 20.3925 0.0986637 20.1571 0.271679 19.9836C0.444694 19.81 0.679353 19.7125 0.924033 19.7125H2.81716C3.0016 19.1248 3.23668 18.5544 3.51976 18.0075L2.18657 16.6703C2.10086 16.5845 2.03288 16.4825 1.98649 16.3703C1.9401 16.2581 1.91622 16.1378 1.91622 16.0164C1.91622 15.8949 1.9401 15.7746 1.98649 15.6624C2.03288 15.5502 2.10086 15.4483 2.18657 15.3625L5.42355 12.1156C5.59978 11.9486 5.83304 11.8555 6.07548 11.8555C6.31793 11.8555 6.55119 11.9486 6.72741 12.1156L8.06061 13.4529C8.60528 13.1689 9.1736 12.9331 9.75909 12.7481V10.8492C9.75909 10.6038 9.85629 10.3684 10.0293 10.1949C10.2023 10.0213 10.437 9.92383 10.6817 9.92383H15.2598C15.5045 9.92383 15.7392 10.0213 15.9122 10.1949C16.0852 10.3684 16.1824 10.6038 16.1824 10.8492V12.7481C16.7683 12.9331 17.3371 13.1689 17.8822 13.4529L19.2154 12.1156C19.3888 11.9433 19.6233 11.8472 19.8673 11.8481C20.1114 11.8473 20.3458 11.9435 20.5193 12.1156L23.7563 15.3625C23.929 15.536 24.0261 15.7712 24.0261 16.0164C24.0261 16.2616 23.929 16.4968 23.7563 16.6703L22.4231 18.0075C22.7068 18.5542 22.9423 19.1247 23.127 19.7125H25.0188C25.2635 19.7125 25.4981 19.81 25.6712 19.9836C25.8442 20.1571 25.9414 20.3925 25.9414 20.6379V25.2301C25.9414 25.4755 25.8442 25.7109 25.6712 25.8844C25.4981 26.0579 25.2635 26.1554 25.0188 26.1554H23.127C22.9424 26.7433 22.7069 27.3138 22.4231 27.8604L23.7563 29.1977C23.929 29.3712 24.0261 29.6064 24.0261 29.8516C24.0261 30.0968 23.929 30.332 23.7563 30.5055L20.5193 33.7524C20.3463 33.9257 20.1118 34.023 19.8673 34.023C19.6229 34.023 19.3884 33.9257 19.2154 33.7524L17.8822 32.4151C17.3371 32.6991 16.7683 32.9349 16.1824 33.1199V35.0188C16.1824 35.2642 16.0852 35.4996 15.9122 35.6731C15.7392 35.8467 15.5045 35.9442 15.2598 35.9442L15.2612 35.9415ZM11.6056 34.0894H14.3386V32.4138C14.3385 32.206 14.4082 32.0042 14.5364 31.841C14.6645 31.6777 14.8438 31.5625 15.0452 31.5138C15.9324 31.2998 16.7808 30.9479 17.5596 30.4708C17.7361 30.3623 17.9438 30.3166 18.1493 30.3408C18.3548 30.3651 18.5462 30.458 18.6928 30.6045L19.874 31.788L21.8058 29.8503L20.6259 28.6655C20.4798 28.5185 20.3873 28.3265 20.3631 28.1203C20.3389 27.9141 20.3845 27.7058 20.4926 27.5288C20.968 26.7475 21.3189 25.8966 21.5325 25.0067C21.581 24.8047 21.6959 24.6249 21.8586 24.4964C22.0214 24.3678 22.2226 24.2979 22.4297 24.298H24.1002V21.5566H22.4297C22.2226 21.5567 22.0214 21.4868 21.8586 21.3582C21.6959 21.2297 21.581 21.0499 21.5325 20.8479C21.3191 19.9575 20.9682 19.1061 20.4926 18.3245C20.3845 18.1475 20.3389 17.9391 20.3631 17.733C20.3873 17.5268 20.4798 17.3348 20.6259 17.1878L21.8058 16.0043L19.874 14.0653L18.6928 15.2501C18.5464 15.3969 18.3549 15.4899 18.1493 15.5141C17.9437 15.5384 17.736 15.4925 17.5596 15.3838C16.7808 14.9068 15.9324 14.5548 15.0452 14.3408C14.844 14.2919 14.6651 14.1765 14.5372 14.0133C14.4093 13.8501 14.3398 13.6484 14.3399 13.4408V11.7652H11.6069V13.4408C11.607 13.6484 11.5376 13.8501 11.4096 14.0133C11.2817 14.1765 11.1028 14.2919 10.9016 14.3408C10.0144 14.5548 9.16602 14.9068 8.38724 15.3838C8.21084 15.4925 8.00309 15.5384 7.79751 15.5141C7.59192 15.4899 7.40047 15.3969 7.25402 15.2501L6.07282 14.0653L4.14102 16.0043L5.3209 17.1878C5.46721 17.3347 5.55993 17.5267 5.58412 17.7329C5.60831 17.9392 5.56255 18.1475 5.45422 18.3245C4.97866 19.1052 4.62779 19.9557 4.41433 20.8452C4.36588 21.047 4.2512 21.2266 4.08871 21.3552C3.92622 21.4837 3.72537 21.5537 3.51842 21.5539H1.8466V24.2967H3.51842C3.72537 24.2969 3.92622 24.3669 4.08871 24.4954C4.2512 24.624 4.36588 24.8036 4.41433 25.0054C4.6275 25.8946 4.9784 26.7447 5.45422 27.5248C5.56265 27.7019 5.60846 27.9105 5.58428 28.117C5.56009 28.3234 5.46732 28.5157 5.3209 28.6628L4.14102 29.8476L6.07415 31.7866L7.25536 30.6032C7.40192 30.4566 7.59335 30.3638 7.79888 30.3395C8.00441 30.3152 8.2121 30.361 8.38857 30.4694C9.16688 30.9465 10.0148 31.2984 10.9016 31.5125C11.1031 31.5611 11.2823 31.6764 11.4105 31.8396C11.5386 32.0029 11.6083 32.2047 11.6082 32.4125L11.6056 34.0894Z" fill="#F4A884"/>
<path d="M27.8115 17.1342C27.6906 17.1348 27.5708 17.1115 27.4589 17.0656C27.3471 17.0197 27.2453 16.9521 27.1595 16.8667L26.3876 16.0938C25.8995 16.3311 25.3872 16.5149 24.8598 16.642L24.4278 14.8434C25.0075 14.7036 25.5617 14.4735 26.0703 14.1614C26.2468 14.053 26.4545 14.0072 26.66 14.0315C26.8655 14.0558 27.057 14.1486 27.2035 14.2952L27.8101 14.9036L28.7287 13.9822L28.1221 13.3725C27.9758 13.2256 27.8831 13.0335 27.8589 12.8273C27.8347 12.6211 27.8805 12.4127 27.9888 12.2358C28.2999 11.7252 28.5293 11.1688 28.6687 10.587C28.7172 10.3849 28.8321 10.2051 28.9948 10.0766C29.1576 9.94801 29.3588 9.87814 29.5659 9.8782H30.4245V8.57438H29.5713C29.3641 8.57445 29.1629 8.50457 29.0002 8.37601C28.8374 8.24744 28.7225 8.06766 28.674 7.86563C28.5348 7.28372 28.3054 6.72734 27.9941 6.2168C27.8858 6.03986 27.84 5.83148 27.8642 5.62527C27.8884 5.41905 27.9811 5.22702 28.1274 5.08013L28.734 4.47168L27.8155 3.55031L27.2089 4.15876C27.0624 4.30552 26.871 4.39852 26.6654 4.42278C26.4598 4.44705 26.252 4.40115 26.0757 4.29249C25.5665 3.98028 25.0119 3.74972 24.4318 3.60915C24.2309 3.5603 24.0521 3.44515 23.9242 3.28219C23.7963 3.11923 23.7267 2.91791 23.7266 2.71051V1.84932H22.4267V2.71051C22.4268 2.91814 22.3574 3.11977 22.2295 3.28301C22.1015 3.44624 21.9226 3.56158 21.7214 3.61049C21.1405 3.7509 20.585 3.98146 20.075 4.29382C19.8986 4.40248 19.6908 4.44838 19.4852 4.42412C19.2796 4.39986 19.0882 4.30685 18.9417 4.1601L18.3351 3.55165L17.4166 4.47435L18.0232 5.0828C18.1698 5.22978 18.2627 5.42207 18.2869 5.62858C18.3111 5.83508 18.2652 6.04374 18.1565 6.22081C17.8458 6.73102 17.6168 7.28694 17.4779 7.86831C17.4294 8.07034 17.3145 8.25011 17.1518 8.37868C16.989 8.50725 16.7878 8.57712 16.5807 8.57705H15.7221V9.14673H13.877V7.65167C13.877 7.40625 13.9742 7.17087 14.1472 6.99733C14.3202 6.82379 14.5548 6.72629 14.7995 6.72629H15.8901C15.9869 6.44516 16.1005 6.17009 16.23 5.90254L15.4595 5.12961C15.2867 4.9561 15.1897 4.72091 15.1897 4.47569C15.1897 4.23047 15.2867 3.99528 15.4595 3.82177L17.6832 1.59123C17.8594 1.42421 18.0927 1.33115 18.3351 1.33115C18.5776 1.33115 18.8109 1.42421 18.9871 1.59123L19.7577 2.36416C20.025 2.23444 20.2996 2.12057 20.5802 2.02316V0.929287C20.5802 0.683861 20.6774 0.448487 20.8505 0.274944C21.0235 0.101401 21.2581 0.00390625 21.5028 0.00390625H24.6385C24.8832 0.00390625 25.1178 0.101401 25.2908 0.274944C25.4638 0.448487 25.561 0.683861 25.561 0.929287V2.02316C25.8413 2.12048 26.1155 2.23434 26.3823 2.36416L27.1542 1.59123C27.3277 1.41911 27.5621 1.32294 27.8061 1.32378C28.0502 1.32294 28.2846 1.41911 28.4581 1.59123L30.6805 3.82177C30.7662 3.9076 30.8342 4.00953 30.8806 4.12173C30.927 4.23394 30.9508 4.35422 30.9508 4.47569C30.9508 4.59716 30.927 4.71744 30.8806 4.82965C30.8342 4.94185 30.7662 5.04378 30.6805 5.12961L29.9099 5.90254C30.0394 6.17059 30.1529 6.4461 30.2499 6.72763H31.3418C31.5864 6.72763 31.8211 6.82512 31.9941 6.99867C32.1671 7.17221 32.2643 7.40758 32.2643 7.65301V10.8063C32.2643 11.0517 32.1671 11.2871 31.9941 11.4606C31.8211 11.6341 31.5864 11.7316 31.3418 11.7316H30.2499C30.1532 12.0128 30.0397 12.2879 29.9099 12.5554L30.6818 13.3297C30.7675 13.4155 30.8355 13.5174 30.8819 13.6296C30.9283 13.7418 30.9522 13.8621 30.9522 13.9836C30.9522 14.1051 30.9283 14.2253 30.8819 14.3375C30.8355 14.4497 30.7675 14.5517 30.6818 14.6375L28.4594 16.8667C28.2871 17.0382 28.0542 17.1344 27.8115 17.1342Z" fill="#F4A884"/>
<path d="M23.0724 13.0745C22.3138 13.0745 21.5722 12.8488 20.9414 12.4261C20.3107 12.0033 19.8191 11.4025 19.5287 10.6995C19.2384 9.99646 19.1625 9.2229 19.3105 8.4766C19.4585 7.7303 19.8238 7.04478 20.3602 6.50673C20.8966 5.96868 21.5801 5.60226 22.3241 5.45381C23.0681 5.30536 23.8393 5.38155 24.5402 5.67274C25.2411 5.96393 25.8401 6.45705 26.2615 7.08973C26.683 7.72242 26.908 8.46625 26.908 9.22717C26.9069 10.2472 26.5025 11.2252 25.7834 11.9464C25.0643 12.6677 24.0893 13.0734 23.0724 13.0745ZM23.0724 7.22931C22.6788 7.22931 22.294 7.34637 21.9667 7.56569C21.6394 7.78501 21.3843 8.09675 21.2336 8.46149C21.0829 8.82623 21.0434 9.22759 21.1201 9.61484C21.1968 10.0021 21.3862 10.3578 21.6644 10.6371C21.9427 10.9164 22.2972 11.1066 22.6832 11.1838C23.0693 11.261 23.4694 11.2217 23.8332 11.0708C24.1969 10.9199 24.5079 10.6642 24.7267 10.336C24.9456 10.0079 25.0626 9.62199 25.0628 9.22717C25.0604 8.69842 24.8499 8.19202 24.4771 7.81813C24.1044 7.44425 23.5995 7.23177 23.0724 7.22931ZM12.9721 29.5829C11.6606 29.5829 10.3785 29.1928 9.28797 28.4619C8.19746 27.731 7.34751 26.6922 6.8456 25.4768C6.34369 24.2614 6.21237 22.924 6.46824 21.6337C6.72411 20.3435 7.35568 19.1583 8.28308 18.228C9.21049 17.2978 10.3921 16.6643 11.6784 16.4077C12.9648 16.151 14.2981 16.2827 15.5098 16.7862C16.7215 17.2896 17.7572 18.1422 18.4858 19.236C19.2145 20.3298 19.6034 21.6158 19.6034 22.9314C19.6013 24.6948 18.902 26.3854 17.6588 27.6324C16.4157 28.8793 14.7302 29.5808 12.9721 29.5829ZM12.9721 18.1293C12.0255 18.1293 11.1001 18.4108 10.3131 18.9384C9.52599 19.4659 8.91254 20.2156 8.55028 21.0929C8.18803 21.9701 8.09325 22.9354 8.27792 23.8666C8.4626 24.7979 8.91844 25.6533 9.58779 26.3247C10.2571 26.9961 11.11 27.4533 12.0384 27.6385C12.9668 27.8238 13.9291 27.7287 14.8037 27.3653C15.6783 27.002 16.4257 26.3867 16.9517 25.5972C17.4776 24.8077 17.7583 23.8795 17.7583 22.93C17.7565 21.6573 17.2517 20.4373 16.3545 19.5373C15.4573 18.6374 14.2409 18.1311 12.9721 18.1293Z" fill="#F4A884"/>
</g>
<defs>
<clipPath id="clip0_274_559">
<rect width="50" height="50" fill="white"/>
</clipPath>
</defs>
</svg>
