<svg width="50" height="50" viewBox="0 0 50 50" fill="none" xmlns="http://www.w3.org/2000/svg">
<g clip-path="url(#clip0_274_4399)">
<path d="M33.6438 45.2967C32.1013 45.2967 31.8124 43.854 31.5808 42.6949C31.4437 41.8164 31.1793 40.9614 30.7955 40.1555C29.8237 38.5442 29.2886 36.718 29.2406 34.8491C29.2101 34.369 29.2841 33.8881 29.4576 33.4379C29.6312 32.9878 29.9004 32.5785 30.2476 32.2371C30.5948 31.8957 31.0121 31.6298 31.4721 31.4569C31.9321 31.284 32.4243 31.208 32.9166 31.234C33.7113 31.2314 34.4996 31.3734 35.241 31.6527C35.4737 31.7511 35.7213 31.8119 35.9741 31.8326V33.4186C35.5365 33.4029 35.1054 33.3116 34.7006 33.1488C34.1342 32.9284 33.5296 32.8165 32.9199 32.8192C32.6413 32.7909 32.3598 32.824 32.0961 32.9162C31.8324 33.0083 31.5933 33.1571 31.3965 33.3515C31.1996 33.5459 31.0501 33.7809 30.9588 34.0393C30.8676 34.2977 30.837 34.5727 30.8694 34.8442C30.9207 36.4633 31.3951 38.0429 32.2474 39.433C32.7011 40.3686 33.0148 41.3629 33.1789 42.3855C33.2291 42.8424 33.3621 43.287 33.5716 43.6985C33.5963 43.7043 33.6217 43.7067 33.6471 43.7058C33.9106 43.2231 34.0923 42.7021 34.185 42.1627C34.4665 41.0376 34.7853 39.7626 35.9757 39.7626V41.3487C36.053 41.3498 36.128 41.3233 36.1866 41.2742C35.9875 41.6752 35.8453 42.1009 35.764 42.5394C35.4693 43.7058 35.0708 45.2967 33.6438 45.2967Z" fill="#F4A884"/>
<path d="M38.2992 45.2965C36.8714 45.2965 36.4729 43.7056 36.1823 42.5424C36.1008 42.1039 35.9587 41.6783 35.7598 41.2771C35.8183 41.3263 35.8934 41.3529 35.9706 41.3517V39.7672C37.1611 39.7672 37.4799 41.043 37.7613 42.1673C37.8486 42.7167 38.0436 43.2445 38.3358 43.7218C38.3486 43.7145 38.362 43.708 38.3756 43.7023C38.5833 43.2908 38.7153 42.8469 38.7658 42.3909C38.9299 41.3683 39.2436 40.374 39.6972 39.4384C40.5497 38.0483 41.0241 36.4688 41.0753 34.8496C41.1077 34.5782 41.0771 34.3031 40.9859 34.0448C40.8946 33.7864 40.7451 33.5513 40.5482 33.3569C40.3514 33.1625 40.1123 33.0137 39.8486 32.9216C39.5849 32.8295 39.3034 32.7963 39.0248 32.8246C38.415 32.8219 37.8105 32.9338 37.2441 33.1543C36.8393 33.3171 36.4081 33.4084 35.9706 33.424V31.838C36.2236 31.8174 36.4715 31.7566 36.7045 31.6582C37.4459 31.3788 38.2342 31.2368 39.029 31.2394C39.5212 31.2133 40.0135 31.2892 40.4736 31.462C40.9336 31.6349 41.351 31.9008 41.6982 32.2422C42.0454 32.5837 42.3146 32.993 42.4881 33.4432C42.6617 33.8935 42.7356 34.3744 42.705 34.8545C42.6573 36.7235 42.1222 38.5498 41.15 40.1609C40.7663 40.9668 40.5019 41.8219 40.3647 42.7003C40.1298 43.8579 39.8375 45.2965 38.2992 45.2965Z" fill="#F4A884"/>
<path d="M27.1032 22.312C26.8886 22.312 26.6828 22.2292 26.5305 22.0817C26.3783 21.9342 26.292 21.734 26.2904 21.5246L26.2705 18.9147L27.896 18.9034L27.9093 20.7203L29.7356 20.7073L29.7215 18.8904C29.7208 18.7863 29.741 18.683 29.7812 18.5865C29.8213 18.49 29.8805 18.4022 29.9554 18.328C30.0304 18.2539 30.1195 18.1948 30.2179 18.1543C30.3162 18.1137 30.4217 18.0925 30.5284 18.0918L32.3905 18.0788L32.3772 16.2911H31.9987V14.7051H33.1833C33.3979 14.7049 33.6039 14.7876 33.7562 14.9351C33.9085 15.0826 33.9947 15.283 33.9961 15.4924L34.021 18.8605C34.0217 18.9646 34.0015 19.0679 33.9613 19.1644C33.9212 19.2609 33.862 19.3487 33.787 19.4229C33.7121 19.497 33.6229 19.5561 33.5246 19.5966C33.4263 19.6371 33.3208 19.6584 33.214 19.6591L31.352 19.6721L31.3652 21.489C31.3661 21.5932 31.3459 21.6965 31.3058 21.793C31.2657 21.8896 31.2065 21.9774 31.1316 22.0516C31.0566 22.1258 30.9674 22.1848 30.869 22.2253C30.7707 22.2658 30.6651 22.287 30.5583 22.2877L27.1065 22.312H27.1032Z" fill="#F4A884"/>
<path d="M25.6017 19.7213H24.4104C24.196 19.7213 23.9903 19.6387 23.8381 19.4913C23.6858 19.344 23.5994 19.144 23.5977 18.9348L23.5728 15.5667C23.572 15.4626 23.5923 15.3593 23.6324 15.2628C23.6726 15.1663 23.7318 15.0785 23.8067 15.0043C23.8816 14.9302 23.9708 14.8711 24.0691 14.8306C24.1674 14.79 24.273 14.7688 24.3797 14.7681L26.2418 14.7551L26.2277 12.9382C26.2263 12.728 26.3105 12.5258 26.4618 12.3761C26.6131 12.2263 26.8191 12.1412 27.0346 12.1395L30.4864 12.1152H30.4922C30.7068 12.1152 30.9126 12.198 31.0649 12.3455C31.2171 12.493 31.3034 12.6932 31.305 12.9026L31.3241 15.5125L29.6986 15.5246L29.6853 13.7077L27.8589 13.7207L27.8722 15.5376C27.873 15.6417 27.8527 15.745 27.8126 15.8415C27.7724 15.938 27.7132 16.0258 27.6383 16.1C27.5634 16.1742 27.4742 16.2332 27.3759 16.2737C27.2776 16.3143 27.172 16.3355 27.0653 16.3362L25.2032 16.35L25.2165 18.1377H25.6017V19.7213Z" fill="#F4A884"/>
<path d="M24.7586 47.8978H4.80883C4.59328 47.8978 4.38656 47.8143 4.23414 47.6656C4.08172 47.5169 3.99609 47.3151 3.99609 47.1048V5.14994C3.99609 4.93963 4.08172 4.73792 4.23414 4.5892C4.38656 4.44048 4.59328 4.35693 4.80883 4.35693H10.2971V5.94293H5.62157V46.3118H24.7553L24.7586 47.8978Z" fill="#F4A884"/>
<path d="M39.582 25.0488H37.9565V5.94293H33.2827V4.35693H38.771C38.9865 4.35693 39.1932 4.44048 39.3456 4.5892C39.4981 4.73792 39.5837 4.93963 39.5837 5.14994L39.582 25.0488Z" fill="#F4A884"/>
<path d="M18.6315 20.9038H10.0293V22.4898H18.6315V20.9038Z" fill="#F4A884"/>
<path d="M27.0834 26.9653H10.0293V28.5513H27.0834V26.9653Z" fill="#F4A884"/>
<path d="M21.792 33.0269H10.0293V34.6129H21.792V33.0269Z" fill="#F4A884"/>
<path d="M21.792 39.0879H10.0293V40.6739H21.792V39.0879Z" fill="#F4A884"/>
<path d="M30.1209 7.58403H13.4636C13.2481 7.58403 13.0413 7.50048 12.8889 7.35176C12.7365 7.20304 12.6509 7.00133 12.6509 6.79102V3.40272C12.6509 3.1924 12.7365 2.9907 12.8889 2.84198C13.0413 2.69326 13.2481 2.60971 13.4636 2.60971H15.7283V0.789593C15.7283 0.579274 15.8139 0.377567 15.9664 0.228849C16.1188 0.0801314 16.3255 -0.00341797 16.5411 -0.00341797H27.041C27.2566 -0.00341797 27.4633 0.0801314 27.6157 0.228849C27.7681 0.377567 27.8538 0.579274 27.8538 0.789593V2.60971H30.1209C30.3365 2.60971 30.5432 2.69326 30.6956 2.84198C30.8481 2.9907 30.9337 3.1924 30.9337 3.40272V6.79102C30.9337 7.00133 30.8481 7.20304 30.6956 7.35176C30.5432 7.50048 30.3365 7.58403 30.1209 7.58403ZM14.2764 5.998H29.3082V4.19573H27.041C26.8255 4.19573 26.6188 4.11218 26.4663 3.96347C26.3139 3.81475 26.2283 3.61304 26.2283 3.40272V1.5826H17.3538V3.40272C17.3538 3.61304 17.2682 3.81475 17.1157 3.96347C16.9633 4.11218 16.7566 4.19573 16.5411 4.19573H14.2764V5.998Z" fill="#F4A884"/>
<path d="M35.9737 49.9996C33.5953 49.9994 31.2704 49.3111 29.2929 48.0217C27.3153 46.7323 25.7741 44.8997 24.864 42.7557C23.9539 40.6116 23.7158 38.2524 24.1798 35.9763C24.6439 33.7002 25.7892 31.6095 27.471 29.9685C29.1528 28.3276 31.2955 27.21 33.6282 26.7572C35.9609 26.3045 38.3789 26.5368 40.5763 27.4248C42.7737 28.3128 44.6518 29.8166 45.9733 31.7461C47.2948 33.6757 48.0002 35.9442 48.0004 38.2649C47.9975 41.3762 46.7295 44.3594 44.4747 46.5595C42.2199 48.7596 39.1625 49.9968 35.9737 49.9996ZM35.9737 28.1169C33.9168 28.1171 31.9061 28.7124 30.1958 29.8276C28.4856 30.9427 27.1527 32.5277 26.3657 34.382C25.5786 36.2363 25.3727 38.2767 25.7741 40.2451C26.1755 42.2136 27.1661 44.0217 28.6207 45.4408C30.0752 46.8599 31.9284 47.8263 33.9459 48.2178C35.9633 48.6093 38.0544 48.4083 39.9548 47.6402C41.8552 46.8721 43.4794 45.5714 44.6222 43.9027C45.765 42.2339 46.3749 40.2719 46.3749 38.2649C46.3718 35.5742 45.275 32.9947 43.325 31.0922C41.3751 29.1898 38.7313 28.1197 35.9737 28.1169Z" fill="#F4A884"/>
</g>
<defs>
<clipPath id="clip0_274_4399">
<rect width="50" height="50" fill="white"/>
</clipPath>
</defs>
</svg>
