<svg width="50" height="50" viewBox="0 0 50 50" fill="none" xmlns="http://www.w3.org/2000/svg">
<g clip-path="url(#clip0_274_2470)">
<path d="M18.0248 47.5909C14.8937 47.5909 14.3236 44.2984 13.6639 40.4854C13.2572 37.4954 12.4725 34.5866 11.3338 31.8477C8.67531 25.9458 7.13672 21.3651 7.13672 15.4148C7.13672 9.29777 10.6115 5.34513 15.9889 5.34513C18.0478 5.33556 20.0898 5.76428 22.0078 6.60876C22.8113 6.99606 23.668 7.2241 24.5403 7.28286V9.16558C23.4805 9.11093 22.4374 8.84662 21.4587 8.38473C19.72 7.61164 17.8666 7.21902 15.9976 7.22784C11.4998 7.22784 8.8151 10.288 8.8151 15.4148C8.8151 21.0169 10.2263 25.2126 12.8309 30.9954C14.0366 33.8905 14.8703 36.9646 15.3066 40.1249C16.0085 44.1777 16.425 45.7082 18.0292 45.7082C19.5838 45.7082 20.301 42.3976 20.9337 39.4771C21.6619 36.1205 22.3471 32.9496 24.5476 32.9496V34.8323C23.6585 34.8323 23.0468 37.6551 22.5553 39.9229C21.7726 43.52 20.8908 47.5909 18.0248 47.5909Z" fill="#F4A884"/>
<path d="M31.0609 47.5911C28.1956 47.5911 27.3131 43.5177 26.5347 39.9231C26.0432 37.6545 25.4316 34.8324 24.5425 34.8324V32.9497C26.7422 32.9497 27.4289 36.1207 28.1556 39.4764C28.7883 42.3978 29.5056 45.7084 31.0602 45.7084C32.6621 45.7084 33.0815 44.1771 33.7834 40.1251C34.2199 36.9647 35.0535 33.8907 36.2592 30.9956C38.8638 25.2119 40.2749 21.0163 40.2749 15.4149C40.2749 10.2881 37.5902 7.228 33.0924 7.228C31.2234 7.21905 29.37 7.61168 27.6313 8.38488C26.651 8.84733 25.6062 9.11165 24.5447 9.16573V7.28383C25.4167 7.22508 26.2732 6.99703 27.0764 6.60973C28.9944 5.76537 31.0364 5.33666 33.0954 5.3461C38.4728 5.3461 41.9475 9.29874 41.9475 15.4157C41.9475 21.366 40.4089 25.9468 37.7512 31.8487C36.6124 34.5875 35.8277 37.4964 35.4211 40.4863C34.7621 44.2986 34.1919 47.5911 31.0609 47.5911Z" fill="#F4A884"/>
<path d="M24.5424 21.5294C14.6766 21.5294 0 19.7124 0 14.7063C0 12.7908 1.98641 11.266 6.07134 10.0435L6.49948 11.8629C2.68615 13.0042 1.66965 14.1874 1.66965 14.7063C1.66965 16.4306 9.52568 19.6475 24.5431 19.6475C39.5605 19.6475 47.4165 16.4314 47.4165 14.7063C47.4165 14.1874 46.3971 13.0042 42.5881 11.8638L43.0163 10.0443C47.1005 11.266 49.0862 12.7916 49.0862 14.7063C49.0855 19.7124 34.4081 21.5294 24.5424 21.5294Z" fill="#F4A884"/>
<path d="M25.1014 31.9808C14.5949 31.9808 3.95947 29.6375 3.95947 25.1577C3.95947 24.0468 4.5915 23.0336 5.83809 22.1468L6.72864 23.7389C6.02961 24.2365 5.62839 24.7537 5.62839 25.1585C5.62839 27.1734 13.2143 30.0997 25.1006 30.0997C36.987 30.0997 44.5736 27.1734 44.5736 25.1585C44.5736 24.6527 43.9139 23.8038 42.0615 22.9367L42.7015 21.1985C45.0513 22.2979 46.2433 23.6305 46.2433 25.1585C46.2433 29.6375 35.6079 31.9808 25.1014 31.9808Z" fill="#F4A884"/>
<path d="M25.1018 41.3188C15.8914 41.3188 6.56738 38.9754 6.56738 34.4957C6.56738 33.3749 7.15575 32.3453 8.31497 31.4339L9.26884 32.9783C8.60258 33.5014 8.23559 34.0408 8.23559 34.4957C8.23559 36.559 14.6513 39.4369 25.1003 39.4369C35.5493 39.4369 41.9658 36.559 41.9658 34.4957C41.9658 33.8142 41.1881 33.003 39.8308 32.2689L40.5532 30.5718C42.5985 31.6778 43.6354 32.998 43.6354 34.4957C43.6361 38.9738 34.3122 41.3188 25.1018 41.3188Z" fill="#F4A884"/>
<path d="M5.62912 0H3.95947V5.88216H5.62912V0Z" fill="#F4A884"/>
<path d="M7.40251 2.00024H2.18604V3.88296H7.40251V2.00024Z" fill="#F4A884"/>
<path d="M48.2263 3.59229H46.5566V9.47444H48.2263V3.59229Z" fill="#F4A884"/>
<path d="M49.9992 5.59229H44.7827V7.475H49.9992V5.59229Z" fill="#F4A884"/>
<path d="M20.1609 12.8293H18.4912V18.7115H20.1609V12.8293Z" fill="#F4A884"/>
<path d="M21.9343 14.8293H16.7178V16.7121H21.9343V14.8293Z" fill="#F4A884"/>
<path d="M43.01 44.1169H41.3403V49.9991H43.01V44.1169Z" fill="#F4A884"/>
<path d="M44.7829 46.1172H39.5664V47.9999H44.7829V46.1172Z" fill="#F4A884"/>
<path d="M3.77121 38.2349H2.10156V44.117H3.77121V38.2349Z" fill="#F4A884"/>
<path d="M5.54412 40.2351H0.327637V42.1178H5.54412V40.2351Z" fill="#F4A884"/>
</g>
<defs>
<clipPath id="clip0_274_2470">
<rect width="50" height="50" fill="white"/>
</clipPath>
</defs>
</svg>
