<svg width="16" height="11" viewBox="0 0 16 11" fill="none" xmlns="http://www.w3.org/2000/svg">
<path d="M8.79688 1.35742L15.1719 7.73242C15.5938 8.20117 15.5938 8.9043 15.1719 9.32617L14.0938 10.4043C13.6719 10.8262 12.9219 10.8262 12.5 10.4043L8 5.85742L3.45312 10.4043C3.03125 10.8262 2.32812 10.8262 1.85938 10.4043L0.828125 9.32617C0.359375 8.9043 0.359375 8.20117 0.828125 7.73242L7.20312 1.35742C7.625 0.935547 8.32812 0.935547 8.79688 1.35742Z" fill="#202F36"/>
<path d="M8.79688 1.35742L15.1719 7.73242C15.5938 8.20117 15.5938 8.9043 15.1719 9.32617L14.0938 10.4043C13.6719 10.8262 12.9219 10.8262 12.5 10.4043L8 5.85742L3.45312 10.4043C3.03125 10.8262 2.32812 10.8262 1.85938 10.4043L0.828125 9.32617C0.359375 8.9043 0.359375 8.20117 0.828125 7.73242L7.20312 1.35742C7.625 0.935547 8.32812 0.935547 8.79688 1.35742Z" fill="black" fill-opacity="0.2"/>
<path d="M8.79688 1.35742L15.1719 7.73242C15.5938 8.20117 15.5938 8.9043 15.1719 9.32617L14.0938 10.4043C13.6719 10.8262 12.9219 10.8262 12.5 10.4043L8 5.85742L3.45312 10.4043C3.03125 10.8262 2.32812 10.8262 1.85938 10.4043L0.828125 9.32617C0.359375 8.9043 0.359375 8.20117 0.828125 7.73242L7.20312 1.35742C7.625 0.935547 8.32812 0.935547 8.79688 1.35742Z" fill="black" fill-opacity="0.2"/>
</svg>
