<svg width="14" height="13" viewBox="0 0 14 13" fill="none" xmlns="http://www.w3.org/2000/svg">
<path d="M12.6875 3.25C13.3984 3.25 14 3.85156 14 4.5625V11.5625C14 12.3008 13.3984 12.875 12.6875 12.875H1.3125C0.574219 12.875 0 12.3008 0 11.5625V4.5625C0 3.85156 0.574219 3.25 1.3125 3.25H3.5V1.9375C3.5 1.22656 4.07422 0.625 4.8125 0.625H9.1875C9.89844 0.625 10.5 1.22656 10.5 1.9375V3.25H12.6875ZM4.8125 1.9375V3.25H9.1875V1.9375H4.8125ZM1.47656 4.5625C1.36719 4.5625 1.3125 4.64453 1.3125 4.72656V6.75H12.6875V4.72656C12.6875 4.64453 12.6055 4.5625 12.5234 4.5625H1.47656ZM12.5234 11.5625C12.6055 11.5625 12.6875 11.5078 12.6875 11.3984V8.0625H8.75V8.71875C8.75 9.10156 8.44922 9.375 8.09375 9.375H5.90625C5.52344 9.375 5.25 9.10156 5.25 8.71875V8.0625H1.3125V11.3984C1.3125 11.5078 1.36719 11.5625 1.47656 11.5625H12.5234Z" fill="#788094"/>
</svg>
