<svg width="100" height="100" viewBox="0 0 100 100" fill="none" xmlns="http://www.w3.org/2000/svg">
<g clip-path="url(#clip0_285_2125)">
<mask id="mask0_285_2125" style="mask-type:luminance" maskUnits="userSpaceOnUse" x="0" y="0" width="100" height="100">
<path d="M100 0H0V100H100V0Z" fill="white"/>
</mask>
<g mask="url(#mask0_285_2125)">
<path d="M95 8.3335H5C2.23984 8.33652 0.00303118 10.5733 0 13.3335V73.3335C0.00303118 76.0937 2.23984 78.3305 5 78.3335H56.6666V88.3335C56.6654 89.5607 57.34 90.6889 58.4216 91.2687C59.5032 91.8485 60.8162 91.7857 61.8376 91.1053L68.3284 86.7887L74.8258 91.1035C75.8472 91.7845 77.1604 91.8479 78.2428 91.2685C79.325 90.6891 80.0004 89.5611 80 88.3335V78.3335H95C97.7602 78.3305 99.997 76.0937 100 73.3335V13.3335C99.997 10.5733 97.7602 8.33652 95 8.3335ZM90 38.5319C89.6522 38.3399 89.3018 38.1569 88.96 37.9819C88.0882 37.6249 87.293 37.1035 86.6178 36.4463C86.2002 35.5629 85.9528 34.6087 85.8886 33.6339C85.8652 31.6803 85.07 29.8153 83.6768 28.4459C81.9918 27.5083 79.9954 27.3049 78.156 27.8835C77.2322 28.1195 76.271 28.1715 75.3272 28.0365C74.5262 27.5811 73.8164 26.9815 73.2334 26.2679C72.0726 24.6581 70.3004 23.5969 68.3334 23.3335C66.3662 23.5963 64.594 24.6571 63.4334 26.2669C62.8508 26.9805 62.1412 27.5805 61.3404 28.0359C60.3964 28.1709 59.4354 28.1189 58.5114 27.8829C56.6714 27.3037 54.6742 27.5075 52.989 28.4461C51.597 29.8153 50.8026 31.6793 50.7788 33.6317C50.7146 34.6071 50.4672 35.5619 50.0496 36.4459C49.3742 37.1027 48.5792 37.6241 47.7076 37.9815C45.8576 38.6261 44.3474 39.9925 43.5214 41.7689C43.1904 43.6571 43.611 45.5999 44.6932 47.1823C45.2196 48.0451 45.5744 49.0015 45.7382 49.9989C45.5744 50.9963 45.2196 51.9529 44.6932 52.8157C43.6102 54.3981 43.1896 56.3415 43.5214 58.2299C44.3478 60.0055 45.857 61.3715 47.7058 62.0173C48.5778 62.3745 49.3728 62.8957 50.048 63.5529C50.4656 64.4363 50.713 65.3905 50.7772 66.3655C50.8732 67.0065 50.9772 67.6759 51.1332 68.3285L16.4833 68.2773C15.8012 65.0283 13.2531 62.4957 10 61.8335L10.057 24.8153C13.3052 24.1331 15.8372 21.5857 16.5 18.3335L83.5166 18.3897C84.1988 21.6387 86.747 24.1713 90 24.8335V38.5319ZM54.9822 68.8819C54.9654 68.8699 54.9528 68.8487 54.9372 68.8341L54.9206 68.8157C54.4112 67.9151 54.122 66.9069 54.0762 65.8733C53.9748 64.3743 53.5264 62.9193 52.766 61.6233C51.8078 60.4961 50.594 59.6141 49.226 59.0509C48.137 58.4943 46.9034 57.8629 46.6998 57.2215C46.511 56.6283 47.1556 55.3449 47.6732 54.3129C48.4674 53.0033 48.9464 51.5267 49.0724 50.0001C48.946 48.4733 48.4668 46.9969 47.6724 45.6869C47.1548 44.6559 46.5102 43.3717 46.699 42.7785C46.9026 42.1379 48.1362 41.5065 49.2266 40.9499C50.5944 40.3871 51.8076 39.5053 52.7652 38.3783C53.5268 37.0815 53.9758 35.6251 54.077 34.1245C54.2512 32.9559 54.4692 31.5009 54.982 31.1183C55.467 30.7569 56.852 30.9865 57.967 31.1719C59.4194 31.5391 60.939 31.5483 62.3956 31.1989C63.736 30.6121 64.9164 29.7131 65.838 28.5769C66.6568 27.7257 67.6742 26.6669 68.3334 26.6669C68.9926 26.6669 70.0114 27.7263 70.83 28.5777C71.7518 29.7137 72.9322 30.6125 74.2724 31.1989C75.7286 31.5487 77.2478 31.5395 78.6996 31.1719C79.8144 30.9887 81.2028 30.7579 81.6846 31.1183C82.1988 31.5017 82.4178 32.9575 82.5912 34.1269C82.6924 35.6261 83.141 37.0811 83.9014 38.3769C84.8596 39.5041 86.0732 40.3861 87.4414 40.9493C88.5304 41.5059 89.764 42.1375 89.9674 42.7789C90.1564 43.3719 89.5116 44.6555 88.9942 45.6873C88.1996 46.9971 87.7204 48.4735 87.5944 50.0001C87.7206 51.5269 88.2 53.0035 88.9944 54.3133C89.511 55.3443 90.1564 56.6287 89.9676 57.2219C89.7642 57.8623 88.5306 58.4939 87.44 59.0505C86.0724 59.6133 84.859 60.4949 83.9014 61.6219C83.14 62.9189 82.6908 64.3753 82.5896 65.8759C82.4154 67.0445 82.1974 68.4995 81.6846 68.8819C81.1982 69.2417 79.813 69.0139 78.6996 68.8283C77.2472 68.4627 75.7278 68.4535 74.271 68.8015C72.9306 69.3881 71.7504 70.2871 70.8286 71.4235C70.0098 72.2747 68.9926 73.3335 68.3334 73.3335C67.6742 73.3335 66.6554 72.2739 65.8366 71.4227C64.915 70.2865 63.7344 69.3877 62.3942 68.8015C61.8162 68.6169 61.2122 68.5273 60.6054 68.5361C59.7196 68.5621 58.8372 68.6597 57.9672 68.8283C56.85 69.0105 55.4622 69.2409 54.9822 68.8819ZM70.2034 84.0335C69.0926 83.2555 67.616 83.2467 66.4958 84.0115L60 88.3335V71.9069C60.446 71.8401 60.9008 71.8593 61.3394 71.9639C62.1404 72.4193 62.8504 73.0189 63.4334 73.7323C64.5942 75.3421 66.3662 76.4033 68.3334 76.6669C70.3004 76.4041 72.0726 75.3431 73.2334 73.7335C73.8158 73.0197 74.5256 72.4199 75.3264 71.9643C75.7654 71.8599 76.2202 71.8405 76.6666 71.9069L76.6712 88.3287L70.2034 84.0335ZM96.6666 73.3335C96.6658 74.2537 95.9202 74.9993 95 75.0001H80V72.3659C81.284 72.5649 82.5962 72.2751 83.6768 71.5537C85.0688 70.1845 85.8632 68.3205 85.887 66.3681C85.9512 65.3927 86.1986 64.4379 86.6162 63.5539C87.2916 62.8971 88.0866 62.3757 88.9584 62.0183C90.8082 61.3735 92.3184 60.0073 93.1446 58.2309C93.4754 56.3427 93.0548 54.3999 91.9726 52.8175C91.4462 51.9545 91.0914 50.9983 90.9276 50.0009C91.0914 49.0033 91.4462 48.0469 91.9726 47.1841C92.7264 45.9255 93.1888 44.5143 93.326 43.0537C93.326 43.0409 93.3334 43.0301 93.3334 43.0175V24.8335C93.3326 23.2317 92.196 21.8555 90.6234 21.5523C88.6922 21.1517 87.1832 19.643 86.7822 17.712C86.4788 16.1387 85.1024 15.0014 83.5 15.0002H16.5C14.8976 15.0008 13.5206 16.1376 13.2167 17.711C12.8164 19.6415 11.3086 21.1505 9.37834 21.5521C7.80484 21.8547 6.66732 23.2311 6.66666 24.8335V61.8335C6.66732 63.4351 7.80394 64.8113 9.37666 65.1147C11.3078 65.5153 12.8169 67.0241 13.2178 68.9551C13.5213 70.5285 14.8977 71.6655 16.5 71.6669H53.1736C54.2236 72.2929 55.4568 72.5395 56.6666 72.3651V75.0001H5C4.07986 74.9993 3.33416 74.2537 3.33334 73.3335V13.3335C3.33416 12.4134 4.07986 11.6677 5 11.6668H95C95.9202 11.6677 96.6658 12.4134 96.6666 13.3335V73.3335Z" fill="#F4A884"/>
<path d="M68.3326 66.6669C77.5374 66.6669 84.9994 59.2049 84.9994 50.0001C84.9994 40.7953 77.5374 33.3335 68.3326 33.3335C59.128 33.3335 51.666 40.7953 51.666 50.0001C51.6764 59.2005 59.1322 66.6563 68.3326 66.6669ZM68.3326 36.6669C75.6964 36.6669 81.666 42.6363 81.666 50.0001C81.666 57.3639 75.6964 63.3335 68.3326 63.3335C60.9688 63.3335 54.9994 57.3639 54.9994 50.0001C55.0078 42.6399 60.9724 36.6753 68.3326 36.6669Z" fill="#F4A884"/>
<path d="M40 43.3336C40 42.4132 39.2538 41.667 38.3334 41.667H21.6666C20.7462 41.667 20 42.4132 20 43.3336C20 44.254 20.7462 45.0002 21.6666 45.0002H38.3334C39.2538 45.0002 40 44.254 40 43.3336Z" fill="#F4A884"/>
<path d="M41.6666 35H21.6666C20.7462 35 20 35.7462 20 36.6666C20 37.5872 20.7462 38.3334 21.6666 38.3334H41.6666C42.5872 38.3334 43.3334 37.5872 43.3334 36.6666C43.3334 35.7462 42.5872 35 41.6666 35Z" fill="#F4A884"/>
<path d="M40.0006 48.3335H30.0006C29.0802 48.3335 28.334 49.0797 28.334 50.0001C28.334 50.9207 29.0802 51.6669 30.0006 51.6669H40.0006C40.9212 51.6669 41.6674 50.9207 41.6674 50.0001C41.6674 49.0797 40.9212 48.3335 40.0006 48.3335Z" fill="#F4A884"/>
</g>
</g>
<defs>
<clipPath id="clip0_285_2125">
<rect width="100" height="100" fill="white"/>
</clipPath>
</defs>
</svg>
