<svg width="100" height="100" viewBox="0 0 100 100" fill="none" xmlns="http://www.w3.org/2000/svg">
<path d="M85.06 51.2231C82.3209 52.6375 79.6361 54.052 76.7614 55.5208C79.9344 57.4249 81.5073 60.009 80.2056 63.5723C79.1751 66.4012 76.8699 67.5165 73.9138 67.4621C73.0731 70.1005 71.3375 71.6238 68.5713 71.9774C68.3543 72.0046 68.056 72.3582 67.9747 72.603C67.1068 75.7039 65.1813 77.2272 61.927 77.3088C61.6287 77.3088 61.1947 77.608 61.032 77.88C59.2964 81.0353 55.8251 81.933 52.7877 79.9473C50.8622 78.696 48.9638 77.4176 46.8756 76.0304C46.1976 76.7648 45.601 77.4992 44.923 78.152C42.1025 80.9809 38.36 80.3009 36.6515 76.656C36.5972 76.5744 36.543 76.4928 36.4888 76.4112C33.2886 76.8464 30.8208 75.5951 29.7631 71.9774C25.8307 71.6782 24.2849 70.2909 23.7154 66.5372C23.4171 66.4556 23.0917 66.374 22.7662 66.2924C20.1899 65.6396 18.6169 63.2459 18.9424 60.5802C18.9966 60.1722 18.8339 59.6282 18.5898 59.329C17.6677 58.2409 16.6643 57.2617 15.5795 56.1193C15.227 56.7177 14.9287 57.2345 14.6032 57.7513C14.0066 58.7577 13.1659 58.9753 12.2167 58.3769C8.47419 56.092 4.7588 53.8072 1.04341 51.5223C-0.0956139 50.8151 -0.285451 50.1078 0.392539 48.9654C5.89782 39.7443 11.4031 30.4415 16.9355 21.166C17.5864 20.0508 18.3729 19.8876 19.5119 20.5676C23.2544 22.8253 26.9969 25.1102 30.7123 27.395C31.7699 28.0479 31.8242 28.7551 30.9564 30.4415C31.1733 30.4959 31.3903 30.5775 31.6072 30.5775C33.9666 30.6864 36.3532 30.7952 38.7126 30.8496C39.1194 30.8496 39.6618 30.632 39.8787 30.3055C41.6957 27.7214 44.2179 26.851 47.2824 26.9326C52.408 27.0414 57.4794 27.667 62.5507 28.4559C64.9644 28.8367 67.4323 28.9455 69.9815 29.1903C69.0866 26.5518 69.0865 26.579 71.4188 25.1646C74.5647 23.2877 77.6835 21.3836 80.8294 19.5068C82.1853 18.6907 82.8091 18.8267 83.704 20.1596C88.9381 27.9391 94.1722 35.6913 99.4063 43.4708C100.355 44.8853 100.193 45.5653 98.7283 46.4629C95.3926 48.4758 92.0569 50.4887 88.7212 52.5015C87.0397 53.508 86.6058 53.4264 85.4668 51.8215C85.3312 51.5767 85.1956 51.4407 85.06 51.2231ZM49.0723 73.7999C50.9978 75.0511 52.8419 76.3296 54.7132 77.5264C55.8793 78.2608 57.2082 78.016 57.9946 76.9824C58.4557 76.384 58.5099 75.9215 57.7777 75.3775C55.7979 73.9087 53.8453 72.3582 51.9198 70.8078C51.5673 70.5358 51.1062 70.1005 51.1062 69.7197C51.1062 69.1757 51.2961 68.4957 51.6758 68.1149C52.2453 67.5437 53.0046 67.7341 53.6284 68.2237C55.7437 69.8829 57.859 71.515 59.9744 73.1743C60.3812 73.4735 60.788 73.7999 61.249 74.0175C62.4151 74.5887 63.9067 74.0991 64.6118 72.9294C65.344 71.7326 65.1813 71.107 63.8254 70.1005C61.0591 68.0061 58.2929 65.9388 55.5267 63.8443C54.903 63.3819 54.4691 62.7291 54.7945 62.0219C55.0115 61.5594 55.6081 61.0698 56.0963 60.961C56.5302 60.8794 57.1268 61.2058 57.5336 61.505C60.354 63.5723 63.1202 65.694 65.9136 67.7885C66.3204 68.0877 66.7271 68.3869 67.1882 68.6045C68.5442 69.2301 70.1985 68.5229 70.7137 67.1356C70.9307 66.5644 70.9307 66.1292 70.3341 65.7484C69.195 65.014 68.1374 64.1707 67.0255 63.3819C63.8254 61.0698 60.6524 58.7849 57.4794 56.4457C57.0997 56.1737 56.6115 55.7656 56.5844 55.412C56.5573 54.8408 56.7471 54.1064 57.1268 53.7256C57.6692 53.1543 58.4285 53.3448 59.0794 53.8072C61.5744 55.6296 64.0694 57.4249 66.5916 59.2202C68.7611 60.7706 70.9307 62.3483 73.1274 63.8715C74.1037 64.5515 75.1885 64.4699 76.1919 63.8443C77.1682 63.2459 77.575 62.2939 77.5208 61.1514C77.4665 59.9818 76.7614 59.2474 75.8665 58.6217C67.9475 53.2631 60.0286 47.9046 52.1097 42.546C50.2927 41.3219 48.4756 40.0979 46.6315 38.8466C44.8416 40.7235 43.2416 42.6276 41.4245 44.314C40.2042 45.4565 38.7939 46.4901 37.3024 47.1973C34.5904 48.4758 31.8242 48.2582 29.2749 46.5717C27.919 45.6469 27.8105 44.8036 28.8681 43.5524C31.2818 40.6691 33.6954 37.7586 36.1091 34.8753C36.326 34.6033 36.543 34.3313 36.8413 33.9233C34.4006 33.8145 32.1767 33.7601 29.9529 33.6241C29.2478 33.5697 28.8681 33.7873 28.5156 34.4129C25.7223 39.2003 22.8747 43.9332 20.0543 48.6934C19.1322 50.271 18.183 51.8215 17.2338 53.4536C18.4813 54.7592 19.7017 56.0376 21.0306 57.4249C22.034 56.3369 22.9018 55.3304 23.8781 54.4328C26.346 52.1751 30.0614 52.7735 31.7428 55.6296C31.8784 55.8472 32.014 56.092 32.1496 56.2825C36.5159 54.5416 39.716 56.4457 40.2313 61.0154C40.2584 61.2602 40.6109 61.5866 40.8821 61.6682C42.5907 62.1851 43.8111 63.2187 44.4619 64.878C44.706 65.5308 44.8145 66.238 44.9772 66.918C48.5841 67.7069 49.8316 69.8013 49.0723 73.7999ZM83.2972 48.639C83.1616 48.367 83.1074 48.2582 83.026 48.1494C79.5818 43.0356 76.1376 37.8946 72.6392 32.808C72.4223 32.4816 71.8256 32.264 71.3917 32.2368C67.378 31.8288 63.3914 31.448 59.3777 31.1216C54.9843 30.7408 50.6181 30.3871 46.2247 30.0879C44.8687 29.9791 43.7568 30.5231 42.8619 31.6112C39.4719 35.7185 36.0549 39.7987 32.6378 43.906C32.4479 44.1236 32.3123 44.3684 32.1496 44.586C32.1767 44.6948 32.231 44.7764 32.2581 44.8853C33.2073 44.8309 34.2107 44.9125 35.1328 44.722C36.8142 44.3684 38.1431 43.362 39.3092 42.138C41.1533 40.2067 42.9975 38.2482 44.8416 36.2897C46.0349 35.0385 46.4417 35.0113 47.879 35.9905C48.6112 36.4802 49.3435 36.9698 50.0757 37.4594C57.7234 42.6548 65.3983 47.8502 73.0731 53.0183C73.3986 53.2359 73.941 53.4536 74.2122 53.3176C77.2496 51.8215 80.2327 50.2438 83.2972 48.639ZM12.6777 55.0312C17.8033 46.3813 22.8476 37.8674 27.919 29.3263C24.8816 27.4766 21.9255 25.6542 18.9424 23.8317C13.8439 32.4272 8.7725 40.9411 3.67401 49.5638C6.68429 51.3863 9.61321 53.1815 12.6777 55.0312ZM96.2604 44.2868C91.3518 36.997 86.5245 29.8431 81.6429 22.5805C78.7683 24.3213 75.9207 26.035 73.0189 27.7758C77.9276 35.0385 82.7548 42.2196 87.6364 49.455C90.5382 47.7414 93.3586 46.0277 96.2604 44.2868ZM29.3834 68.8493C29.6546 68.7133 30.2784 68.5501 30.6852 68.1421C32.6378 66.2652 34.5362 64.3339 36.4345 62.4027C37.3295 61.4778 37.3295 60.145 36.4616 59.3018C35.6209 58.4585 34.3463 58.3769 33.4514 59.2474C31.4174 61.233 29.4377 63.2731 27.4579 65.3132C26.8342 65.966 26.7799 66.782 27.1596 67.5981C27.485 68.3869 28.163 68.7949 29.3834 68.8493ZM39.2821 64.5787C39.038 64.7148 38.4414 64.878 38.0617 65.2316C36.543 66.6732 35.0514 68.1693 33.6141 69.6925C32.7191 70.6174 32.7191 71.8414 33.5327 72.7118C34.3734 73.6095 35.7023 73.7183 36.6244 72.8206C38.2244 71.2974 39.7431 69.7197 41.2618 68.1149C41.8856 67.462 41.8856 66.646 41.533 65.83C41.1533 65.0412 40.4753 64.6331 39.2821 64.5787ZM29.2749 58.4857C29.3021 57.3161 28.8953 56.6905 28.1359 56.3097C27.3494 55.9288 26.5901 56.0376 25.9663 56.6361C24.8273 57.7241 23.6883 58.8393 22.6035 60.009C21.817 60.8522 21.8713 62.0763 22.6306 62.8379C23.4442 63.6267 24.5561 63.6267 25.424 62.7835C26.5087 61.7226 27.5935 60.6618 28.6512 59.5466C28.9766 59.193 29.1665 58.7033 29.2749 58.4857ZM46.523 71.651C46.1162 71.1614 45.7637 70.563 45.2484 70.2093C44.6247 69.7741 43.9467 69.9645 43.4043 70.5086C42.3195 71.5694 41.2347 72.6574 40.177 73.7455C39.3363 74.6159 39.2821 75.6223 40.0143 76.3296C40.7194 77.0096 41.75 77.0096 42.5636 76.2208C43.6755 75.1327 44.7603 74.0175 45.8179 72.875C46.0891 72.603 46.2247 72.195 46.523 71.651Z" fill="#F4A884"/>
<path d="M49.5 0L51.6329 6.56434H58.535L52.9511 10.6213L55.084 17.1857L49.5 13.1287L43.916 17.1857L46.0489 10.6213L40.465 6.56434H47.3671L49.5 0Z" fill="#F4A884"/>
</svg>
