<svg width="100" height="100" viewBox="0 0 100 100" fill="none" xmlns="http://www.w3.org/2000/svg">
<g clip-path="url(#clip0_285_2065)">
<path d="M0.182542 93.5195C2.19051 89.8409 4.09417 86.1104 6.23252 82.5095C7.77109 79.9189 9.41397 77.3024 11.3959 75.0226C16.5592 69.142 23.3654 66.8882 31.0322 67.0954C34.4744 67.199 37.8906 67.7171 41.3067 68.1057C42.6888 68.2612 43.3408 69.2197 43.1322 70.4632C42.9235 71.5253 41.9587 72.0434 40.6548 71.9139C37.2387 71.5771 33.7964 71.059 30.3803 71.0072C21.6965 70.8518 15.2553 74.8154 10.9004 82.1986C8.73596 85.8772 6.64976 89.6077 4.53748 93.3123C4.38102 93.5972 4.22455 93.8822 4.14632 94.1931C3.88555 95.2293 4.48533 96.0065 5.55451 96.0324C12.5433 96.0324 19.532 96.0324 26.5469 96.0324C27.4074 96.0324 28.0333 95.7215 28.4766 94.9702C29.2068 93.7527 30.0413 92.5869 30.7454 91.3693C31.3191 90.3849 32.1014 89.9963 33.2227 90.0481C37.6037 90.2813 42.0108 90.359 46.3658 90.6957C52.1289 91.1621 57.6052 90.1776 62.9511 88.0274C73.4081 83.8566 83.8913 79.7375 94.3484 75.5667C95.9391 74.9449 96.5389 73.6496 95.9652 72.3543C95.5218 71.3699 94.4005 70.8518 93.0445 71.1367C91.1147 71.5512 89.185 72.0175 87.2553 72.4838C82.5613 73.5978 77.8413 74.7377 73.1474 75.9034C72.704 76.0071 72.339 76.3438 71.9478 76.6029C70.8265 77.3542 69.8094 78.3127 68.5838 78.8567C63.4465 81.1623 58.1528 83.0017 52.6765 84.3488C52.494 84.4006 52.2854 84.4265 52.1028 84.4524C50.9293 84.6337 50.0427 84.0897 49.7558 83.0535C49.469 81.9913 50.0427 81.0328 51.1901 80.6701C53.5632 79.9707 55.9623 79.3748 58.2832 78.5717C61.0996 77.6132 63.8898 76.4993 66.6541 75.4112C67.2278 75.1781 67.7754 74.8931 68.2709 74.5563C69.2879 73.8828 69.5226 73.1833 69.2097 72.2766C68.8707 71.2922 68.0362 70.7741 66.9148 70.8777C64.9329 71.0849 62.9771 71.2922 60.9952 71.5253C60.3172 71.603 59.6392 71.7067 58.9612 71.7585C57.8138 71.8621 56.8489 71.1108 56.7185 70.0746C56.5882 68.9865 57.2922 68.0539 58.4657 67.9244C61.2821 67.5876 64.0724 67.2249 66.8888 67.0177C69.5747 66.8104 71.9478 68.4425 72.8605 70.9554C72.9648 71.2145 73.043 71.4994 73.1734 71.8621C75.7812 71.2404 78.3629 70.6186 80.9184 70.0228C84.804 69.1161 88.6635 68.1057 92.5751 67.3286C95.8087 66.6809 98.8858 68.6498 99.7464 71.629C100.633 74.6859 99.1466 77.8464 96.0434 79.064C84.6997 83.5716 73.356 88.0533 61.9862 92.4833C57.0836 94.4003 51.9985 94.9702 46.7569 94.6335C42.5585 94.3744 38.3861 94.219 34.1876 94.0635C33.8747 94.0635 33.4574 94.2967 33.2749 94.5557C32.649 95.4106 32.0753 96.3173 31.5277 97.25C30.3803 99.1152 28.6852 99.9701 26.5469 99.9701C19.3495 99.996 12.1782 100.022 4.9808 99.9701C2.73814 99.9442 1.22564 98.6748 0.391162 96.6282C0.234697 96.2655 0.130387 95.9028 0 95.5402C0.182542 94.8148 0.182542 94.1671 0.182542 93.5195Z" fill="#F4A884"/>
<path d="M57.0802 0.0524662C58.6585 0.445962 60.2894 0.68206 61.7888 1.28542C67.8654 3.67263 71.6533 8.18472 73.2316 14.4544C74.9415 21.3275 73.863 27.7021 69.3385 33.316C68.7597 34.0243 68.1284 34.7064 67.4182 35.2835C64.8403 37.4871 63.7617 40.294 63.4987 43.6256C63.2356 46.9047 62.5517 50.1576 61.9467 53.4105C61.7362 54.5648 61.2364 55.7453 60.684 56.7946C59.0794 59.8639 56.1069 61.3329 52.6609 60.9132C50.1356 60.5984 48.1627 58.8408 47.584 56.1126C46.8475 52.6498 46.295 49.187 45.6111 45.698C45.4796 45.0684 45.2954 44.4126 44.9535 43.8617C44.2432 42.6288 42.5334 42.5763 41.9284 43.8617C41.4023 44.9635 41.1655 46.2227 40.9288 47.4294C40.4027 50.0265 39.9555 52.6236 39.5083 55.2469C39.0348 57.8702 37.8247 59.9951 35.089 60.7033C32.1165 61.4641 29.4071 60.782 27.3289 58.4211C25.5928 56.4536 24.9352 54.0139 24.5669 51.4955C24.0408 48.0328 23.541 44.57 23.0675 41.1072C22.8307 39.4808 22.1468 38.1167 21.0683 36.9362C20.4633 36.2803 19.8845 35.6245 19.2269 35.0212C14.5446 30.5878 12.6769 25.0526 13.0452 18.7829C13.3871 12.6181 15.8335 7.39773 20.8841 3.59393C23.3831 1.73138 26.1978 0.629594 29.2755 0.209865C29.486 0.183632 29.6964 0.0786992 29.9069 0.0262331C31.0906 0.0262331 32.2743 0.0262331 33.4581 0.0262331C33.8526 0.131165 34.2735 0.209865 34.6681 0.314797C37.3512 1.12802 40.0344 1.96748 42.7438 2.78071C43.1384 2.88564 43.6119 2.99057 43.9802 2.85941C47.1894 1.94125 50.3724 0.970624 53.5553 0C54.7127 0.0524662 55.8965 0.0524662 57.0802 0.0524662ZM16.8857 18.9665C16.8594 24.764 18.4641 28.6203 21.7259 31.9519C22.5414 32.7913 23.3831 33.6308 24.1723 34.5227C25.7243 36.2803 26.6976 38.3003 26.987 40.6613C27.4605 44.1503 27.9866 47.6393 28.5127 51.1283C28.7757 52.781 29.1703 54.4074 30.2488 55.7453C31.2221 56.952 32.5637 57.2406 33.9842 56.952C35.2205 56.6897 35.4573 55.5879 35.6414 54.5386C36.0097 52.5186 36.3779 50.4724 36.7725 48.4787C37.1408 46.6949 37.3775 44.8586 37.9563 43.1272C39.0085 40.0841 41.7968 38.5102 44.6641 39.166C47.3209 39.7956 48.7151 41.7106 49.3465 44.2027C49.6884 45.5931 49.8989 47.0359 50.1619 48.4263C50.5565 50.6036 50.9511 52.8072 51.372 54.9845C51.5561 55.9289 51.9507 56.7946 53.0029 56.9782C54.5549 57.2406 56.0017 56.8733 56.8698 55.4567C57.3696 54.6697 57.8167 53.7778 58.0009 52.8597C58.6059 49.6855 59.1846 46.485 59.6055 43.2846C60.0001 40.2415 60.3421 37.2247 62.5254 34.8113C63.2619 33.9981 63.9985 33.1324 64.7876 32.3716C69.6804 27.5972 71.0746 21.8522 69.4174 15.3726C67.1025 6.21724 58.1587 2.07241 50.5828 4.82689C48.6362 5.53518 46.6896 6.19101 44.7167 6.7419C43.9539 6.95177 43.0069 6.978 42.244 6.7419C40.0344 6.11231 37.8773 5.32532 35.694 4.64326C32.0113 3.489 28.3811 3.7251 25.0404 5.58765C19.4374 8.76185 17.1751 13.9035 16.8857 18.9665Z" fill="#F4A884"/>
<path d="M50.0264 68C51.1462 68 52.0261 68.9127 51.9994 70.0671C51.9727 71.1678 51.1195 72 49.9997 72C48.9065 72 48.0267 71.1409 48 70.0403C48 68.9127 48.9065 68 50.0264 68Z" fill="#F4A884"/>
<path d="M94.2613 14.412C92.7454 8.13795 89.1072 3.64895 83.2709 1.23382C81.8308 0.630035 80.2391 0.393772 78.7484 0C77.6115 0 76.4745 0 75.3376 0C73.1395 0.682537 70.9161 1.39133 68.718 2.07386L71.2951 5.25029C71.6994 5.09278 72.1289 4.93527 72.5331 4.77776C79.8095 2.02136 88.3998 6.16909 90.6231 15.3308C92.1896 21.8149 90.8758 27.5903 86.1764 32.3418C85.4185 33.1293 84.711 33.9694 84.0036 34.7832C81.9066 37.1983 81.5781 40.2172 81.1991 43.2624C80.7949 46.4651 80.2643 49.6677 79.658 52.8442C79.4811 53.7367 79.0516 54.6292 78.5715 55.443C77.7125 56.8606 76.3482 57.2281 74.8575 56.9656C73.8469 56.7819 73.4427 55.9156 73.2911 54.9705C72.8868 52.7916 72.5079 50.5865 72.1289 48.4077C71.8762 46.9901 71.6994 45.5725 71.3456 44.1812C70.8151 41.9761 69.7287 40.2435 67.7327 39.4297L67 43.6561C67.0505 43.7349 67.1011 43.7874 67.1263 43.8662C67.4295 44.4174 67.6316 45.0737 67.758 45.7038C68.4149 49.1689 68.9454 52.6604 69.6529 56.1256C70.2087 58.8557 72.1036 60.6146 74.5291 60.9296C77.8388 61.3496 80.6938 59.8795 82.235 56.8081C82.7656 55.7581 83.2204 54.603 83.4478 53.4217C84.0289 50.1665 84.6858 46.9113 84.9384 43.6299C85.2163 40.2697 86.227 37.4871 88.703 35.2819C89.3599 34.6782 89.9915 34.0219 90.5473 33.3131C94.8677 27.6428 95.9036 21.2637 94.2613 14.412Z" fill="#F4A884"/>
</g>
<defs>
<clipPath id="clip0_285_2065">
<rect width="100" height="100" fill="white"/>
</clipPath>
</defs>
</svg>
