<svg width="100" height="100" viewBox="0 0 100 100" fill="none" xmlns="http://www.w3.org/2000/svg">
<g clip-path="url(#clip0_285_2099)">
<g clip-path="url(#clip1_285_2099)">
<path d="M99.9998 60.553C99.4529 61.153 98.9321 61.7531 98.3592 62.327C92.8644 67.8319 87.3696 73.3367 81.8748 78.8154C80.3123 80.3808 79.7394 80.3808 78.1769 78.8415C77.9686 78.6328 77.7602 78.4502 77.604 78.3197C75.4946 80.433 73.4373 82.494 71.38 84.5551C71.8488 85.4421 72.4998 86.3813 72.8644 87.3988C74.0883 90.9469 72.9946 93.9211 70.3123 96.3735C65.1561 101.07 55.6508 101.252 50.2602 96.7909C45.3123 92.721 45.5467 86.3813 50.9113 82.8071C56.1196 79.3372 61.6665 79.1546 67.3436 81.7113C68.9842 82.4418 68.4373 82.6245 69.7394 81.32C71.5363 79.5459 73.3331 77.7458 75.4685 75.6325C75.0258 75.3456 74.5571 75.189 74.2446 74.876C73.1508 73.8063 73.1508 72.9454 74.2186 71.8757C75.8071 70.2843 77.3956 68.6928 78.9842 67.1014C84.9217 61.1791 90.8592 55.2308 96.7967 49.3085C98.0727 48.0301 98.9321 48.0562 100.078 49.4651C99.9998 53.1175 99.9998 56.8222 99.9998 60.553ZM59.9477 96.6605C62.9686 96.53 65.7029 95.8778 67.9946 93.895C70.3904 91.86 70.6508 89.0424 68.5935 86.6944C66.9008 84.7638 64.6352 83.8767 62.1873 83.5115C58.4633 82.9897 54.9998 83.5637 52.0311 86.0682C49.5571 88.1293 49.3227 90.973 51.4842 93.321C53.7498 95.8517 56.8227 96.5039 59.9477 96.6605ZM79.9738 75.8934C80.0519 75.8413 80.1561 75.8152 80.2081 75.7369C85.5727 70.3886 90.9373 65.0142 96.3019 59.6399C96.4581 59.4833 96.6404 59.2224 96.6665 58.9876C96.6925 57.4223 96.6925 55.8308 96.6925 54.2916C90.2863 60.7095 83.9321 67.0492 77.5779 73.415C78.281 74.1716 79.1404 75.0325 79.9738 75.8934Z" fill="#F4A884"/>
<path d="M2.13558 0C2.63037 0.417428 3.12516 0.834855 3.56787 1.27837C8.12516 6.07879 12.6564 10.8792 17.1877 15.7057C18.646 17.245 18.672 17.558 17.396 19.3321C19.0627 21.0018 20.7554 22.6715 22.4481 24.3412C23.62 25.5153 23.62 26.2979 22.422 27.498C21.8752 28.0459 21.3022 28.5938 20.7033 29.1938C20.9637 29.4808 21.1981 29.7417 21.4325 29.9765C23.6981 32.2202 25.9377 34.49 28.2033 36.7336C29.8179 38.3512 30.0002 39.5774 28.9845 41.6384C28.672 42.2385 28.3595 42.8646 28.0991 43.4907C27.5262 44.8474 27.7345 46.1257 28.7241 47.1954C29.7397 48.2912 31.0158 48.5781 32.37 48.0824C33.8283 47.5607 35.2866 46.9606 36.7189 46.3866C37.0054 46.2823 37.3179 46.1779 37.6825 46.0214C38.0991 47.0128 38.4897 47.9781 38.9325 49.0738C36.2762 49.9348 33.9585 51.5523 31.0939 51.5784C26.5627 51.6306 23.2293 46.8823 24.8179 42.6298C25.1564 41.7428 25.6252 40.934 25.9637 40.047C26.0679 39.7861 26.0418 39.3165 25.8595 39.1338C23.3856 36.6032 20.8856 34.0986 18.2554 31.4897C17.6304 32.1419 17.0575 32.7681 16.4845 33.3681C15.3647 34.4639 14.5835 34.49 13.4897 33.3942C11.797 31.6984 10.1043 29.9765 8.41162 28.2807C6.69287 29.5069 6.35433 29.4808 4.81787 28.1764C3.59391 27.1328 2.36995 26.1414 1.17204 25.0717C0.729329 24.6804 0.390788 24.2369 -0.0258789 23.7934C0.000162764 15.8883 0.000162764 7.93112 0.000162764 0C0.729329 0 1.43245 0 2.13558 0ZM3.54183 6.07879C3.41162 6.18315 3.35954 6.20924 3.35954 6.20924C3.35954 11.5053 3.3335 16.8276 3.3335 22.1237C3.3335 22.3585 3.4637 22.6454 3.61995 22.802C4.55745 23.6368 5.54704 24.4456 6.40641 25.15C9.01058 22.5411 11.5887 19.9583 14.1929 17.3493C10.7033 13.6708 7.10954 9.88782 3.54183 6.07879ZM19.1147 25.9588C17.7085 24.55 16.3022 23.1672 14.9481 21.7845C13.62 23.1411 12.2137 24.5239 10.9637 25.8022C12.3179 27.1589 13.7241 28.5677 15.1304 29.9504C16.4064 28.646 17.7866 27.2893 19.1147 25.9588Z" fill="#F4A884"/>
<path d="M60.755 76.3892C59.6613 76.5718 58.6457 76.7544 57.5259 76.9371C57.1613 74.7456 56.7967 72.6062 56.4321 70.4669C55.703 66.0318 54.9738 61.6227 54.2186 57.1875C53.8019 54.8395 52.1353 53.3524 49.9998 53.3263C47.8123 53.3263 46.1457 54.8134 45.755 57.2397C44.479 64.7795 43.255 72.3193 41.979 79.8591C41.5884 82.2332 41.2238 84.6073 40.7811 86.9814C40.078 90.8165 36.979 93.3994 33.1509 93.3211C29.5571 93.2689 26.4842 90.4774 25.9634 86.7205C24.6353 77.0936 23.3332 67.4667 22.0311 57.8137C21.8488 56.457 21.5103 55.2047 20.755 53.9785C17.9686 49.4651 15.9634 44.6125 14.7134 39.4468C14.6613 39.2381 14.6092 39.0033 14.5571 38.6902C15.6248 38.4554 16.6405 38.2206 17.7082 37.9858C18.1769 39.5512 18.5936 41.0644 19.0623 42.5254C20.1821 45.9691 21.6665 49.2825 23.6457 52.3088C24.7134 53.9264 25.104 55.6743 25.3384 57.5267C26.6144 67.1014 27.9425 76.6762 29.2446 86.2248C29.5571 88.4424 31.1717 89.9295 33.2811 90.0078C35.3384 90.0599 37.0832 88.5989 37.4478 86.3814C38.9582 77.4328 40.4425 68.4841 41.9269 59.5355C42.1092 58.4137 42.2915 57.2919 42.4998 56.17C43.255 52.5436 46.1196 50.1434 49.7915 50.013C53.203 49.9086 56.4061 52.2306 57.1873 55.7787C57.9686 59.3007 58.4634 62.875 59.0623 66.4231C59.5832 69.4755 60.078 72.528 60.5988 75.5543C60.729 75.7891 60.729 76.0239 60.755 76.3892Z" fill="#F4A884"/>
<path d="M76.9531 65.2232C75.8333 65.0667 74.8177 64.9363 73.6719 64.7797C73.8802 63.1622 74.0885 61.5968 74.2969 60.0315C74.4792 58.7531 74.5573 57.4486 74.8437 56.1703C75.0781 55.1267 75.3646 54.0049 75.9115 53.0917C80.7031 45.3954 83.151 37.0469 83.3333 27.9678C83.5938 15.732 71.1458 6.78337 59.6875 11.0359C56.8229 12.1056 53.9323 13.0448 50.8073 13.123C48.0729 13.2013 45.4427 12.7839 42.8385 11.9751C40.625 11.2707 38.3854 10.4098 36.0938 10.1228C30.599 9.47056 25.8594 11.2968 21.875 15.1058C21.7187 15.2624 21.5625 15.4189 21.3802 15.5754C21.3281 15.6276 21.276 15.6276 21.1458 15.7059C20.3646 15.0015 19.5833 14.2971 18.75 13.5405C21.0677 10.9576 23.8021 9.10531 26.9792 7.93129C32.0052 6.07896 37.0573 6.05287 42.0312 8.08783C47.3958 10.2793 52.6302 10.0967 58.0469 8.06174C66.25 4.98321 73.776 6.54856 80.1823 12.523C84.6354 16.6712 86.6667 21.9673 86.6146 28.02C86.5365 36.0294 84.6615 43.5953 80.9896 50.7176C80.5208 51.6307 80.0781 52.5961 79.4531 53.4309C78.0729 55.2311 77.9687 57.3443 77.7083 59.4053C77.474 61.3881 77.2135 63.2665 76.9531 65.2232Z" fill="#F4A884"/>
</g>
</g>
<defs>
<clipPath id="clip0_285_2099">
<rect width="100" height="100" fill="white"/>
</clipPath>
<clipPath id="clip1_285_2099">
<rect width="100" height="100" fill="white"/>
</clipPath>
</defs>
</svg>
