<svg width="100" height="100" viewBox="0 0 100 100" fill="none" xmlns="http://www.w3.org/2000/svg">
<g clip-path="url(#clip0_285_2036)">
<path d="M37.8827 88.3253C31.6016 88.3253 30.4577 82.4125 29.1339 75.5651C28.3196 70.1969 26.747 64.9743 24.4641 60.0565C19.1323 49.4587 16.0447 41.2326 16.0447 30.5469C15.9927 27.575 16.5765 24.6268 17.7562 21.9033L20.8046 23.3083C19.8263 25.5903 19.346 28.058 19.3965 30.5439C19.3965 40.6042 22.2286 48.1372 27.4529 58.5256C29.8725 63.7237 31.5461 69.2431 32.4232 74.9176C33.8313 82.1943 34.666 84.9455 37.8857 84.9455C41.0052 84.9455 42.4437 79.0005 43.7124 73.7558C45.164 67.7288 46.5489 62.0357 50.9618 62.0357V65.4155C49.1792 65.4155 47.9526 70.4845 46.9655 74.5586C45.4021 81.0105 43.6311 88.3253 37.8827 88.3253Z" fill="#F4A884"/>
<path d="M50.9589 19.3277C48.8292 19.2306 46.733 18.7561 44.7663 17.9257C41.276 16.5366 37.5555 15.8316 33.8037 15.8483V12.4671C37.9346 12.45 42.0317 13.2199 45.8797 14.7364C47.4914 15.4326 49.2102 15.8425 50.9603 15.9479L50.9589 19.3277Z" fill="#F4A884"/>
<path d="M66.0339 25.469C63.9377 20.4147 54.6735 19.3277 51.1026 19.3277H50.9574L50.9443 15.9479H51.0111C52.7422 15.8319 54.4413 15.4213 56.0366 14.7334C59.8841 13.2171 63.9807 12.4472 68.1111 12.4641C69.4799 12.4602 70.8462 12.5823 72.193 12.8289L71.5834 16.1516C70.4376 15.9424 69.2754 15.8389 68.1111 15.8424C65.2049 15.8111 62.3117 16.2386 59.5364 17.1097C63.418 18.1791 67.4913 20.2316 69.1171 24.1593L66.0339 25.469Z" fill="#F4A884"/>
<path d="M64.0365 88.3253C58.2867 88.3253 56.5186 81.0106 54.9553 74.5543C53.9696 70.4801 52.743 65.4112 50.959 65.4112V62.0314C55.3733 62.0314 56.7509 67.7244 58.2083 73.7514C59.477 78.9962 60.9156 84.9412 64.0351 84.9412C67.2533 84.9412 68.0894 82.1914 69.4975 74.9132C70.374 69.2386 72.0476 63.7191 74.4678 58.5212C79.6936 48.1372 82.5242 40.6027 82.5242 30.5396C82.5295 29.2793 82.4182 28.0212 82.1918 26.7818L85.4826 26.1519C85.748 27.6014 85.8788 29.0728 85.8731 30.5469C85.8731 41.2327 82.7855 49.4587 77.4538 60.0565C75.1711 64.9748 73.599 70.198 72.7854 75.5666C71.4601 82.4111 70.3177 88.3253 64.0365 88.3253Z" fill="#F4A884"/>
<path d="M83.5224 99.9988C83.2643 99.9987 83.0097 99.9385 82.7784 99.8228C82.5472 99.707 82.3455 99.539 82.1893 99.3316C82.033 99.1243 81.9264 98.8833 81.8776 98.6275C81.8289 98.3717 81.8393 98.108 81.9082 97.8569C81.9343 97.7602 84.54 87.8157 78.2313 83.6903C77.8967 83.4699 77.6512 83.1361 77.539 82.7491C77.4269 82.3621 77.4555 81.9474 77.6196 81.5799C77.7838 81.2123 78.0727 80.916 78.4343 80.7445C78.7959 80.573 79.2063 80.5375 79.5914 80.6445C86.8335 82.6809 92.4876 74.1223 92.5442 74.0359C92.7635 73.7002 93.0941 73.4544 93.4768 73.3426C93.8594 73.2308 94.2691 73.2602 94.6322 73.4257C94.9952 73.5912 95.288 73.8819 95.4579 74.2455C95.6277 74.6092 95.6637 75.0221 95.5592 75.4101C95.533 75.5068 92.9274 85.4512 99.2361 89.5767C99.5719 89.7965 99.8186 90.1304 99.9315 90.518C100.044 90.9055 100.016 91.3211 99.8517 91.6894C99.6873 92.0577 99.3977 92.3544 99.0353 92.5258C98.6728 92.6973 98.2615 92.7321 97.8759 92.6239C90.6077 90.5832 84.9812 99.1417 84.9246 99.2296C84.7728 99.4655 84.5651 99.6594 84.3202 99.7937C84.0753 99.928 83.8011 99.9985 83.5224 99.9988ZM83.4832 84.2455C85.1191 86.9095 85.9364 90.0029 85.8319 93.1352C88.0879 90.9812 90.9258 89.5502 93.9871 89.0229C92.3506 86.3586 91.5328 83.2647 91.6369 80.1318C89.3804 82.2834 86.5433 83.7127 83.4832 84.2397V84.2455Z" fill="#F4A884"/>
<path d="M12.8858 83.3094C12.5675 83.3094 12.2559 83.2178 11.9874 83.0452C11.719 82.8726 11.5049 82.6263 11.3703 82.3352C11.3369 82.2634 7.79065 74.8549 1.89566 75.6372C1.49966 75.6886 1.09851 75.5955 0.764466 75.3748C0.430425 75.1541 0.185464 74.8203 0.073746 74.4334C-0.0379722 74.0466 -0.00909222 73.6322 0.155147 73.2649C0.319385 72.8976 0.608182 72.6016 0.969529 72.4303C6.39855 69.8811 5.40712 61.7269 5.39551 61.6434C5.3427 61.243 5.43385 60.8367 5.65244 60.4982C5.87103 60.1598 6.20259 59.9116 6.58694 59.7987C6.9713 59.6858 7.38298 59.7157 7.74737 59.883C8.11177 60.0502 8.40472 60.3437 8.57307 60.7102C8.60646 60.7805 12.147 68.1905 18.0477 67.4082C18.4447 67.3544 18.8476 67.446 19.1834 67.6665C19.5191 67.887 19.7653 68.2216 19.8774 68.6097C19.9895 68.9978 19.96 69.4135 19.7942 69.7815C19.6284 70.1495 19.3373 70.4453 18.9739 70.6151C13.5782 73.1481 14.5377 81.3214 14.5479 81.4034C14.5983 81.8035 14.5055 82.2085 14.2862 82.5456C14.0669 82.8827 13.7355 83.1297 13.3518 83.242C13.2003 83.2863 13.0435 83.3089 12.8858 83.3094ZM5.95293 72.7042C8.05687 73.4684 9.93187 74.7636 11.3993 76.4664C11.7318 74.2345 12.6243 72.1254 13.9919 70.3397C11.8878 69.5751 10.0124 68.28 8.54406 66.5776C8.21193 68.81 7.31943 70.9196 5.95147 72.7057L5.95293 72.7042Z" fill="#F4A884"/>
<path d="M25.5396 25.2186C25.2213 25.2188 24.9095 25.1272 24.6411 24.9546C24.3726 24.782 24.1585 24.5356 24.0241 24.2444C23.9893 24.174 20.4401 16.7728 14.5495 17.5464C14.1535 17.5977 13.7523 17.5047 13.4182 17.284C13.0842 17.0633 12.8393 16.7294 12.7276 16.3426C12.6158 15.9558 12.6447 15.5414 12.8089 15.1741C12.9732 14.8068 13.262 14.5108 13.6233 14.3395C19.0524 11.7903 18.0594 3.6361 18.0493 3.5526C17.9965 3.15214 18.0876 2.74583 18.3062 2.40739C18.5248 2.06895 18.8564 1.82078 19.2407 1.7079C19.6251 1.59502 20.0368 1.62491 20.4012 1.79213C20.7656 1.95936 21.0585 2.25286 21.2268 2.61939C21.2602 2.68971 24.8065 10.1012 30.7015 9.31741C31.0985 9.26359 31.5014 9.35523 31.8371 9.57569C32.1729 9.79614 32.4191 10.1308 32.5312 10.5189C32.6433 10.907 32.6137 11.3227 32.4479 11.6907C32.2822 12.0587 31.9911 12.3544 31.6276 12.5243C26.232 15.0573 27.1915 23.2306 27.2017 23.3126C27.2521 23.7127 27.1593 24.1177 26.94 24.4548C26.7207 24.7919 26.3893 25.0389 26.0056 25.1512C25.8541 25.1954 25.6973 25.2181 25.5396 25.2186ZM18.6067 14.6178C20.7106 15.3822 22.5856 16.6774 24.0532 18.3799C24.3852 16.1482 25.2771 14.0392 26.6442 12.2533C24.5405 11.4886 22.6657 10.1935 21.1978 8.49114C20.8658 10.7229 19.9739 12.8319 18.6067 14.6178Z" fill="#F4A884"/>
<path d="M81.255 24.2987C81.1958 24.2991 81.1367 24.2962 81.0779 24.2899C80.6803 24.2474 80.3109 24.0628 80.0364 23.7694C79.762 23.476 79.6005 23.0932 79.5813 22.6902C79.5813 22.6111 79.0921 14.3953 73.3394 12.8629C72.9529 12.7593 72.616 12.5196 72.3894 12.1872C72.1627 11.8548 72.0614 11.4515 72.1036 11.0503C72.1459 10.649 72.3289 10.2763 72.6197 9.99934C72.9105 9.72241 73.2898 9.55956 73.6892 9.54024C79.6698 9.26336 81.8182 1.3362 81.8429 1.26002C81.9446 0.869304 82.1817 0.528305 82.5111 0.298872C82.8406 0.0694383 83.2406 -0.0332366 83.6386 0.00946809C84.0367 0.0521728 84.4063 0.237432 84.6806 0.531641C84.9549 0.82585 85.1157 1.20953 85.1337 1.61309C85.1337 1.6922 85.6229 9.90797 91.3756 11.4389C91.762 11.5425 92.099 11.7821 92.3256 12.1146C92.5522 12.447 92.6536 12.8502 92.6113 13.2515C92.5691 13.6527 92.386 14.0255 92.0952 14.3024C91.8045 14.5794 91.4251 14.7422 91.0258 14.7615C85.0437 15.0384 82.8967 22.9656 82.8721 23.0432C82.7773 23.4031 82.5674 23.7213 82.275 23.9484C81.9825 24.1755 81.624 24.2986 81.255 24.2987ZM78.1935 11.6997C79.8541 13.2124 81.1034 15.1289 81.8226 17.2667C82.9693 15.3293 84.5884 13.7204 86.5258 12.5933C84.8651 11.0806 83.6158 9.16415 82.8967 7.02629C81.7499 8.9644 80.1308 10.5742 78.1935 11.7026V11.6997Z" fill="#F4A884"/>
</g>
<defs>
<clipPath id="clip0_285_2036">
<rect width="100" height="100" fill="white"/>
</clipPath>
</defs>
</svg>
