<svg width="14" height="12" viewBox="0 0 14 12" fill="none" xmlns="http://www.w3.org/2000/svg">
<path d="M0 0.75C0 0.33525 0.3136 0 0.7 0H9.8C10.1864 0 10.5 0.33525 10.5 0.75C10.5 1.16475 10.1864 1.5 9.8 1.5H0.7C0.3136 1.5 0 1.16475 0 0.75ZM13.3 5.25H0.7C0.3136 5.25 0 5.58525 0 6C0 6.41475 0.3136 6.75 0.7 6.75H13.3C13.6864 6.75 14 6.41475 14 6C14 5.58525 13.6864 5.25 13.3 5.25ZM7 10.5H0.7C0.3136 10.5 0 10.8352 0 11.25C0 11.6648 0.3136 12 0.7 12H7C7.3864 12 7.7 11.6648 7.7 11.25C7.7 10.8352 7.3864 10.5 7 10.5Z" fill="white"/>
</svg>
