<svg width="12" height="12" viewBox="0 0 12 12" fill="none" xmlns="http://www.w3.org/2000/svg">
<path d="M9.6875 0.92187H9.2397V0.46875C9.2397 0.20986 9.0298 0 8.7709 0C8.51205 0 8.30219 0.20986 8.30219 0.46875V0.92187H3.70312V0.46875C3.70312 0.20986 3.49326 0 3.23437 0C2.97548 0 2.76562 0.20986 2.76562 0.46875V0.92187H2.31785C1.03978 0.92187 0 1.96165 0 3.2397V9.6821C0 10.9602 1.03978 12 2.31785 12H9.6875C10.9656 12 12.0053 10.9602 12.0053 9.6821V3.2397C12.0053 1.96165 10.9656 0.92187 9.6875 0.92187ZM2.31785 1.85937H2.76562V2.77343C2.76562 3.03232 2.97548 3.24218 3.23437 3.24218C3.49326 3.24218 3.70312 3.03232 3.70312 2.77343V1.85937H8.30221V2.77343C8.30221 3.03232 8.51207 3.24218 8.771 3.24218C9.0299 3.24218 9.2397 3.03232 9.2397 2.77343V1.85937H9.6875C10.4486 1.85937 11.0678 2.47859 11.0678 3.2397V3.68749H0.9375V3.2397C0.9375 2.47859 1.55671 1.85937 2.31785 1.85937ZM9.6875 11.0625H2.31785C1.55671 11.0625 0.9375 10.4433 0.9375 9.6821V4.62499H11.0678V9.6821C11.0678 10.4433 10.4486 11.0625 9.6875 11.0625ZM4.16407 6.46875C4.16407 6.72764 3.95421 6.9375 3.69532 6.9375H2.77345C2.51456 6.9375 2.3047 6.72764 2.3047 6.46875C2.3047 6.20986 2.51456 6 2.77345 6H3.69532C3.95418 6 4.16407 6.20986 4.16407 6.46875ZM9.7007 6.46875C9.7007 6.72764 9.4908 6.9375 9.2319 6.9375H8.31004C8.05115 6.9375 7.84129 6.72764 7.84129 6.46875C7.84129 6.20986 8.05115 6 8.31004 6H9.2319C9.4908 6 9.7007 6.20986 9.7007 6.46875ZM6.92969 6.46875C6.92969 6.72764 6.71983 6.9375 6.46094 6.9375H5.53907C5.28018 6.9375 5.07032 6.72764 5.07032 6.46875C5.07032 6.20986 5.28018 6 5.53907 6H6.46094C6.71981 6 6.92969 6.20986 6.92969 6.46875ZM4.16407 9.2344C4.16407 9.4933 3.95421 9.7031 3.69532 9.7031H2.77345C2.51456 9.7031 2.3047 9.4933 2.3047 9.2344C2.3047 8.9755 2.51456 8.7656 2.77345 8.7656H3.69532C3.95418 8.7656 4.16407 8.9755 4.16407 9.2344ZM9.7007 9.2344C9.7007 9.4933 9.4908 9.7031 9.2319 9.7031H8.31004C8.05115 9.7031 7.84129 9.4933 7.84129 9.2344C7.84129 8.9755 8.05115 8.7656 8.31004 8.7656H9.2319C9.4908 8.7656 9.7007 8.9755 9.7007 9.2344ZM6.92969 9.2344C6.92969 9.4933 6.71983 9.7031 6.46094 9.7031H5.53907C5.28018 9.7031 5.07032 9.4933 5.07032 9.2344C5.07032 8.9755 5.28018 8.7656 5.53907 8.7656H6.46094C6.71981 8.7656 6.92969 8.9755 6.92969 9.2344Z" fill="#848484"/>
</svg>
