<svg width="18" height="15" viewBox="0 0 18 15" fill="none" xmlns="http://www.w3.org/2000/svg">
<path d="M7.17188 11.25C7.33594 11.25 7.5 11.4141 7.5 11.5781V12.6719C7.5 12.8633 7.33594 13 7.17188 13H6.07812C5.88672 13 5.75 12.8633 5.75 12.6719V11.5781C5.75 11.4141 5.88672 11.25 6.07812 11.25H7.17188ZM7.17188 6C7.33594 6 7.5 6.16406 7.5 6.32812V7.42188C7.5 7.61328 7.33594 7.75 7.17188 7.75H6.07812C5.88672 7.75 5.75 7.61328 5.75 7.42188V6.32812C5.75 6.16406 5.88672 6 6.07812 6H7.17188ZM4.54688 6C4.71094 6 4.875 6.16406 4.875 6.32812V7.42188C4.875 7.61328 4.71094 7.75 4.54688 7.75H3.45312C3.26172 7.75 3.125 7.61328 3.125 7.42188V6.32812C3.125 6.16406 3.26172 6 3.45312 6H4.54688ZM4.54688 11.25C4.71094 11.25 4.875 11.4141 4.875 11.5781V12.6719C4.875 12.8633 4.71094 13 4.54688 13H3.45312C3.26172 13 3.125 12.8633 3.125 12.6719V11.5781C3.125 11.4141 3.26172 11.25 3.45312 11.25H4.54688ZM4.54688 8.625C4.71094 8.625 4.875 8.78906 4.875 8.95312V10.0469C4.875 10.2383 4.71094 10.375 4.54688 10.375H3.45312C3.26172 10.375 3.125 10.2383 3.125 10.0469V8.95312C3.125 8.78906 3.26172 8.625 3.45312 8.625H4.54688ZM7.17188 8.625C7.33594 8.625 7.5 8.78906 7.5 8.95312V10.0469C7.5 10.2383 7.33594 10.375 7.17188 10.375H6.07812C5.88672 10.375 5.75 10.2383 5.75 10.0469V8.95312C5.75 8.78906 5.88672 8.625 6.07812 8.625H7.17188ZM15.0469 11.25C15.2109 11.25 15.375 11.4141 15.375 11.5781V12.6719C15.375 12.8633 15.2109 13 15.0469 13H13.9531C13.7617 13 13.625 12.8633 13.625 12.6719V11.5781C13.625 11.4141 13.7617 11.25 13.9531 11.25H15.0469ZM15.0469 8.625C15.2109 8.625 15.375 8.78906 15.375 8.95312V10.0469C15.375 10.2383 15.2109 10.375 15.0469 10.375H13.9531C13.7617 10.375 13.625 10.2383 13.625 10.0469V8.95312C13.625 8.78906 13.7617 8.625 13.9531 8.625H15.0469ZM17.3438 6C17.6992 6 18 6.30078 18 6.65625V14.3125C18 14.5586 17.7812 14.75 17.5625 14.75H17.125C16.8789 14.75 16.6875 14.5586 16.6875 14.3125V7.3125H13.1875V2.0625H8.8125V4.6875H1.8125V14.3125C1.8125 14.5586 1.59375 14.75 1.375 14.75H0.9375C0.691406 14.75 0.5 14.5586 0.5 14.3125V4.03125C0.5 3.67578 0.773438 3.375 1.15625 3.375H2.25V1.1875C2.25 0.96875 2.44141 0.75 2.6875 0.75H3.125C3.34375 0.75 3.5625 0.96875 3.5625 1.1875V3.375H5.3125V1.1875C5.3125 0.96875 5.50391 0.75 5.75 0.75H6.1875C6.40625 0.75 6.625 0.96875 6.625 1.1875V3.375H7.5V1.40625C7.5 1.05078 7.77344 0.75 8.15625 0.75H13.8438C14.1992 0.75 14.5 1.05078 14.5 1.40625V6H17.3438ZM11.5469 3.375C11.7109 3.375 11.875 3.53906 11.875 3.70312V4.79688C11.875 4.98828 11.7109 5.125 11.5469 5.125H10.4531C10.2617 5.125 10.125 4.98828 10.125 4.79688V3.70312C10.125 3.53906 10.2617 3.375 10.4531 3.375H11.5469ZM11.5469 8.625C11.7109 8.625 11.875 8.78906 11.875 8.95312V10.0469C11.875 10.2383 11.7109 10.375 11.5469 10.375H10.4531C10.2617 10.375 10.125 10.2383 10.125 10.0469V8.95312C10.125 8.78906 10.2617 8.625 10.4531 8.625H11.5469ZM11.5469 6C11.7109 6 11.875 6.16406 11.875 6.32812V7.42188C11.875 7.61328 11.7109 7.75 11.5469 7.75H10.4531C10.2617 7.75 10.125 7.61328 10.125 7.42188V6.32812C10.125 6.16406 10.2617 6 10.4531 6H11.5469Z" fill="#788094"/>
</svg>
