<svg width="174" height="35" viewBox="0 0 174 35" fill="none" xmlns="http://www.w3.org/2000/svg">
<path fill-rule="evenodd" clip-rule="evenodd" d="M84.7944 20.5931V25.2626H70.3352V22.805L66.169 23.5423C66.169 26.983 67.1493 27.7202 67.8845 28.2118C68.6197 28.7033 69.6 28.7033 71.0704 28.7033H83.8141C88.9606 28.7033 88.7155 25.7541 88.7155 24.2796V20.8389C88.7155 18.3813 87.4902 16.9067 84.3042 16.9067H71.0704V12.483H84.5493V14.6948L88.9606 13.7118V12.9745C88.9606 9.77957 87.4902 8.55076 83.0789 8.55076H72.0507C69.1099 8.55076 67.3944 9.53381 67.3944 12.9745C67.3944 14.2033 67.3944 15.6779 67.3944 16.4152C67.3944 19.1186 68.6197 20.5931 72.0507 20.5931H84.7944ZM12.9887 26.7372L3.92113 14.6948V29.1948H0V8.79652H3.92113L13.4789 21.3304L23.0366 8.79652H26.9577V29.1948H23.0366V14.6948L13.969 26.7372H12.9887ZM128.662 29.1948H132.828V14.9406C132.828 14.9406 144.101 24.7711 149.493 29.1948C149.493 29.1948 150.963 29.1948 152.434 29.1948V8.79652H148.268V22.805L131.848 8.79652H128.417V29.1948H128.662ZM98.7634 29.1948H119.839V25.2626H103.665V20.3474H112.977V16.9067H103.665V12.2372H119.839V8.79652H99.0085V29.1948H98.7634ZM36.7606 29.1948H41.4169V8.79652H36.7606V29.1948ZM51.9549 29.1948H56.6113V8.79652H51.9549V29.1948ZM166.648 0.194824C168.118 0.194824 169.344 0.440587 170.569 1.17788C171.549 1.6694 172.285 2.65245 173.02 3.6355C173.51 4.86432 174 6.09313 174 7.56771C174 9.04228 173.755 10.2711 173.02 11.4999C172.285 12.483 171.549 13.466 170.324 13.9575C169.344 14.6948 167.873 14.9406 166.648 14.9406C165.423 14.9406 163.952 14.6948 162.727 13.9575C161.501 13.2202 160.766 12.483 160.031 11.2541C159.541 10.2711 159.296 9.04228 159.296 7.56771C159.296 6.09313 159.541 4.86432 160.276 3.6355C161.011 2.40669 161.746 1.6694 162.972 0.932112C163.952 0.440587 165.177 0.194824 166.648 0.194824ZM166.648 13.466C167.873 13.466 168.854 13.2202 169.589 12.7287C170.569 12.2372 171.059 11.4999 171.549 10.5169C172.039 9.53381 172.285 8.55076 172.285 7.32194C172.285 6.09313 172.039 5.11008 171.549 4.12703C171.059 3.14398 170.324 2.40669 169.589 1.91516C168.608 1.42364 167.628 1.17788 166.648 1.17788C165.668 1.17788 164.442 1.42364 163.707 1.91516C162.727 2.40669 162.237 3.14398 161.746 4.12703C161.256 5.11008 161.011 6.09313 161.011 7.32194C161.011 8.55076 161.256 9.53381 161.746 10.5169C162.237 11.4999 162.972 12.2372 163.707 12.7287C164.442 13.2202 165.423 13.466 166.648 13.466ZM170.079 6.09313C170.079 6.58465 170.079 7.07618 169.834 7.56771C169.589 8.05923 169.344 8.30499 168.854 8.55076L170.814 11.7457H168.118L166.648 9.04228H165.913V11.7457H163.707V3.14398H166.648C167.628 3.14398 168.608 3.38974 169.099 3.88126C169.589 4.37279 170.079 5.11008 170.079 6.09313ZM165.668 5.35584V6.83042H166.158C166.648 6.83042 166.893 6.83042 167.138 6.58465C167.383 6.33889 167.383 6.33889 167.383 6.09313C167.383 5.6016 166.893 5.35584 165.913 5.35584H165.668Z" fill="#F4A884"/>
</svg>
