<svg width="32" height="58" viewBox="0 0 32 58" fill="none" xmlns="http://www.w3.org/2000/svg">
<mask id="path-1-inside-1_41_3408" fill="white">
<path d="M0.5 20C0.5 8.95431 9.45431 0 20.5 0H30.5V20C30.5 31.0457 21.5457 40 10.5 40H0.5V20Z"/>
</mask>
<path d="M-1.5 20C-1.5 7.84974 8.34974 -2 20.5 -2H30.5V2H20.5C10.5589 2 2.5 10.0589 2.5 20H-1.5ZM30.5 40H0.5H30.5ZM-1.5 40V20C-1.5 7.84974 8.34974 -2 20.5 -2V2C10.5589 2 2.5 10.0589 2.5 20V40H-1.5ZM30.5 0V40V0Z" fill="#F4A884" mask="url(#path-1-inside-1_41_3408)"/>
</svg>
