<svg width="205" height="60" viewBox="0 0 205 60" fill="none" xmlns="http://www.w3.org/2000/svg">
<path fill-rule="evenodd" clip-rule="evenodd" d="M100.094 33.7733V38.4428H85.635V35.9852L81.4688 36.7225C81.4688 40.1631 82.4491 40.9004 83.1843 41.3919C83.9195 41.8835 84.8998 41.8835 86.3702 41.8835H99.1139C104.26 41.8835 104.015 38.9343 104.015 37.4597V34.0191C104.015 31.5614 102.79 30.0869 99.604 30.0869H86.3702V25.6631H99.8491V27.875L104.26 26.8919V26.1547C104.26 22.9597 102.79 21.7309 98.3787 21.7309H87.3505C84.4097 21.7309 82.6942 22.714 82.6942 26.1547C82.6942 27.3835 82.6942 28.8581 82.6942 29.5953C82.6942 32.2987 83.9195 33.7733 87.3505 33.7733H100.094ZM28.2885 39.9174L19.2209 27.875V42.375H15.2998V21.9767H19.2209L28.7787 34.5106L38.3364 21.9767H42.2576V42.375H38.3364V27.875L29.2688 39.9174H28.2885ZM143.962 42.375H148.128V28.1208C148.128 28.1208 159.401 37.9513 164.793 42.375C164.793 42.375 166.263 42.375 167.734 42.375V21.9767H163.567V35.9852L147.148 21.9767H143.717V42.375H143.962ZM114.063 42.375H135.139V38.4428H118.965V33.5275H128.277V30.0869H118.965V25.4174H135.139V21.9767H114.308V42.375H114.063ZM52.0604 42.375H56.7167V21.9767H52.0604V42.375ZM67.2547 42.375H71.9111V21.9767H67.2547V42.375ZM181.948 13.375C183.418 13.375 184.643 13.6208 185.869 14.3581C186.849 14.8496 187.584 15.8326 188.32 16.8157C188.81 18.0445 189.3 19.2733 189.3 20.7479C189.3 22.2225 189.055 23.4513 188.32 24.6801C187.584 25.6631 186.849 26.6462 185.624 27.1377C184.643 27.875 183.173 28.1208 181.948 28.1208C180.722 28.1208 179.252 27.875 178.027 27.1377C176.801 26.4004 176.066 25.6631 175.331 24.4343C174.841 23.4513 174.596 22.2225 174.596 20.7479C174.596 19.2733 174.841 18.0445 175.576 16.8157C176.311 15.5869 177.046 14.8496 178.272 14.1123C179.252 13.6208 180.477 13.375 181.948 13.375ZM181.948 26.6462C183.173 26.6462 184.153 26.4004 184.889 25.9089C185.869 25.4174 186.359 24.6801 186.849 23.697C187.339 22.714 187.584 21.7309 187.584 20.5021C187.584 19.2733 187.339 18.2903 186.849 17.3072C186.359 16.3242 185.624 15.5869 184.889 15.0953C183.908 14.6038 182.928 14.3581 181.948 14.3581C180.967 14.3581 179.742 14.6038 179.007 15.0953C178.027 15.5869 177.536 16.3242 177.046 17.3072C176.556 18.2903 176.311 19.2733 176.311 20.5021C176.311 21.7309 176.556 22.714 177.046 23.697C177.536 24.6801 178.272 25.4174 179.007 25.9089C179.742 26.4004 180.722 26.6462 181.948 26.6462ZM185.379 19.2733C185.379 19.7648 185.379 20.2564 185.134 20.7479C184.889 21.2394 184.643 21.4852 184.153 21.7309L186.114 24.9258H183.418L181.948 22.2225H181.212V24.9258H179.007V16.3242H181.948C182.928 16.3242 183.908 16.5699 184.398 17.0614C184.889 17.553 185.379 18.2903 185.379 19.2733ZM180.967 18.536V20.0106H181.458C181.948 20.0106 182.193 20.0106 182.438 19.7648C182.683 19.5191 182.683 19.5191 182.683 19.2733C182.683 18.7818 182.193 18.536 181.212 18.536H180.967Z" fill="#f4a884"/>
</svg>
