<svg width="25" height="25" viewBox="0 0 25 25" fill="none" xmlns="http://www.w3.org/2000/svg">
<path d="M24.3123 22.7844C24.5467 23.0187 24.5467 23.3937 24.3123 23.5812L23.2342 24.6594C23.0467 24.8937 22.6717 24.8937 22.4373 24.6594L16.7654 18.9875C16.6717 18.8469 16.6248 18.7062 16.6248 18.5656V17.9562C14.8904 19.4094 12.6873 20.3 10.2498 20.3C4.85918 20.3 0.499804 15.9406 0.499804 10.55C0.499804 5.20624 4.85918 0.799988 10.2498 0.799988C15.5936 0.799988 19.9998 5.20624 19.9998 10.55C19.9998 12.9875 19.0623 15.2375 17.6092 16.925H18.2186C18.3592 16.925 18.4998 17.0187 18.6404 17.1125L24.3123 22.7844ZM10.2498 18.05C14.3748 18.05 17.7498 14.7219 17.7498 10.55C17.7498 6.42499 14.3748 3.04999 10.2498 3.04999C6.07793 3.04999 2.7498 6.42499 2.7498 10.55C2.7498 14.7219 6.07793 18.05 10.2498 18.05Z" fill="#f4a884"/>
</svg>
