<svg width="32" height="58" viewBox="0 0 32 58" fill="none" xmlns="http://www.w3.org/2000/svg">
<mask id="path-1-inside-1_41_3411" fill="white">
<path d="M1.5 38C1.5 26.9543 10.4543 18 21.5 18H31.5V38C31.5 49.0457 22.5457 58 11.5 58H1.5V38Z"/>
</mask>
<path d="M1.5 18H31.5H1.5ZM33.5 38C33.5 50.1503 23.6503 60 11.5 60H1.5V56H11.5C21.4411 56 29.5 47.9411 29.5 38H33.5ZM1.5 58V18V58ZM33.5 18V38C33.5 50.1503 23.6503 60 11.5 60V56C21.4411 56 29.5 47.9411 29.5 38V18H33.5Z" fill="#F4A884" mask="url(#path-1-inside-1_41_3411)"/>
</svg>
