<svg width="13" height="15" viewBox="0 0 13 15" fill="none" xmlns="http://www.w3.org/2000/svg">
<path d="M9.30859 9.0625C11.332 9.0625 13 10.7305 13 12.7539V13.4375C13 14.1758 12.3984 14.75 11.6875 14.75H2.0625C1.32422 14.75 0.75 14.1758 0.75 13.4375V12.7539C0.75 10.7305 2.39062 9.0625 4.41406 9.0625C5.20703 9.0625 5.5625 9.5 6.875 9.5C8.16016 9.5 8.51562 9.0625 9.30859 9.0625ZM11.6875 13.4375V12.7539C11.6875 11.4414 10.6211 10.375 9.30859 10.375C8.89844 10.375 8.26953 10.8125 6.875 10.8125C5.45312 10.8125 4.82422 10.375 4.41406 10.375C3.10156 10.375 2.0625 11.4414 2.0625 12.7539V13.4375H11.6875ZM6.875 8.625C4.6875 8.625 2.9375 6.875 2.9375 4.6875C2.9375 2.52734 4.6875 0.75 6.875 0.75C9.03516 0.75 10.8125 2.52734 10.8125 4.6875C10.8125 6.875 9.03516 8.625 6.875 8.625ZM6.875 2.0625C5.42578 2.0625 4.25 3.26562 4.25 4.6875C4.25 6.13672 5.42578 7.3125 6.875 7.3125C8.29688 7.3125 9.5 6.13672 9.5 4.6875C9.5 3.26562 8.29688 2.0625 6.875 2.0625Z" fill="#788094"/>
</svg>
