<svg width="15" height="15" viewBox="0 0 15 15" fill="none" xmlns="http://www.w3.org/2000/svg">
<path d="M13.7559 1.37891C14.3301 1.51562 14.7402 2.03516 14.7402 2.60938C14.7402 9.33594 9.27148 14.75 2.57227 14.75C1.99805 14.75 1.47852 14.3672 1.3418 13.793L0.767578 11.2227C0.630859 10.6211 0.931641 10.0195 1.47852 9.77344L4.26758 8.59766C4.75977 8.37891 5.36133 8.51562 5.7168 8.95312L6.61914 10.0469C8.04102 9.25391 9.24414 8.07812 10.0098 6.65625L8.91602 5.75391C8.47852 5.39844 8.3418 4.79688 8.56055 4.30469L9.76367 1.51562C9.98242 0.96875 10.584 0.667969 11.1855 0.804688L13.7559 1.37891ZM2.62695 13.4375C8.56055 13.4102 13.4004 8.59766 13.4277 2.66406L10.9395 2.08984L9.79102 4.76953L11.6504 6.30078C10.3652 9.00781 8.9707 10.4023 6.26367 11.6875L4.73242 9.82812L2.05273 10.9766L2.62695 13.4375Z" fill="#F4A884"/>
</svg>
