<svg width="18" height="27" viewBox="0 0 18 27" fill="none" xmlns="http://www.w3.org/2000/svg">
<path d="M6.92603 13.3059C6.92603 13.3059 5.97656 13.9841 5.97656 14.1198V14.6623H12.2159C12.2159 14.6623 12.2159 13.7128 11.6734 13.5772C10.9952 13.3059 9.50315 13.1703 9.50315 13.1703L6.92603 13.3059Z" fill="#5B5864"/>
<path d="M5.29931 15.883L5.57058 17.3751C5.57058 17.5107 5.70621 17.6463 5.84185 17.6463H12.4881C12.6238 17.6463 12.7594 17.5107 12.7594 17.3751L13.1663 16.0187C13.1663 15.883 13.0307 15.6118 12.895 15.6118H5.57058C5.2993 15.6118 5.16367 15.7474 5.29931 15.883Z" fill="#5B5864"/>
<path d="M5.56836 18.7315V20.7661C5.56836 20.9017 5.70399 21.0373 5.83963 21.0373L12.6216 20.6304C12.7572 20.6304 12.8928 20.4948 12.8928 20.3591V18.8671C12.8928 18.7315 12.7572 18.5958 12.6216 18.5958L5.83963 18.4602C5.56836 18.4602 5.56836 18.5958 5.56836 18.7315Z" fill="#5B5864"/>
<path d="M5.56836 22.1224V23.7501C5.56836 23.8857 5.70401 23.8857 5.70401 23.8857L12.6216 23.6144C12.7572 23.6144 12.7572 23.4788 12.7572 23.4788V21.5799C12.7572 21.4442 12.6216 21.4442 12.6216 21.4442L5.70401 21.8511C5.56837 21.8511 5.56836 21.9868 5.56836 22.1224Z" fill="#5B5864"/>
<path d="M5.56836 25.1064L5.97528 26.8697C5.97528 27.0054 6.1109 27.0054 6.1109 27.0054L12.079 26.7341C12.2146 26.7341 12.2146 26.7341 12.2146 26.5985L12.6216 24.9708C12.6216 24.8352 12.6216 24.6995 12.4859 24.6995L5.70401 24.9708C5.56837 24.9708 5.56836 24.9708 5.56836 25.1064Z" fill="#5B5864"/>
<path d="M10.4524 1.7766C8.68913 -0.122335 2.04283 -0.52925 1.09336 1.7766C-0.127385 5.71012 0.1439 9.23672 3.94178 13.5771C4.07741 13.7128 4.21304 13.8484 4.48432 13.8484C5.56943 14.1197 8.41785 13.4415 9.09604 13.4415C10.5881 13.4415 12.6226 14.2553 13.979 13.8484C14.7928 13.5771 16.2849 11.1357 17.0987 9.50799C17.37 8.96544 17.6413 7.33778 17.7769 6.65959C18.1838 3.67554 18.0482 -0.257972 14.1147 0.0133046C12.6226 0.148943 12.3513 0.827137 12.2157 1.23405C11.4019 2.4548 10.7237 2.72607 10.4524 2.72607C9.63859 2.99735 8.82476 2.99735 8.01093 2.86171C7.46837 2.72607 7.06146 2.59043 6.24762 2.18352C6.92582 2.31916 8.01093 2.4548 8.68912 2.4548C9.09604 2.59043 10.7237 2.31916 10.4524 1.7766Z" fill="#A5A2A4"/>
<path d="M4.89186 11.2713C4.07803 12.6277 2.85729 12.2208 3.9424 13.5771C4.07804 13.7128 4.21367 13.8484 4.48494 13.8484C5.57005 14.1197 8.41847 13.4415 9.09666 13.4415C10.5887 13.4415 12.6232 14.2553 13.9796 13.8484C14.6578 13.7128 14.9291 13.1702 14.9291 12.7633C14.9291 12.6277 14.9291 12.492 14.7935 12.3564C12.2163 11 13.3014 9.91491 13.0302 5.84576C12.8945 4.35373 12.6233 3.81118 11.8094 3.81118C10.5887 3.94682 10.1818 4.76065 9.23229 4.89629C7.8759 4.89629 7.33335 3.67554 6.1126 3.81118C5.57005 3.94682 5.29878 4.89629 5.29878 6.25267C5.0275 8.01597 5.16314 10.5931 4.89186 11.2713Z" fill="#F4A884"/>
</svg>
