<svg width="34" height="27" viewBox="0 0 34 27" fill="none" xmlns="http://www.w3.org/2000/svg">
<path d="M19.4605 3.13564C16.2052 -0.662238 3.31952 -1.34043 1.42058 3.13564C-1.02091 10.7314 -0.342723 17.3777 6.84611 26.0585C7.11739 26.3298 7.38866 26.6011 7.79558 26.6011C9.69452 27.008 15.2557 27.1436 15.6626 25.9229C15.6626 25.9229 16.8834 20.3617 21.2238 19.5479C20.8169 19.9548 18.6467 21.7181 17.5616 24.5665C16.6121 26.8724 18.511 26.8724 18.9179 26.8724C20.2743 26.8724 24.6147 26.8724 25.9711 26.4654C27.0562 26.0585 30.1759 21.1755 31.9392 18.1915C32.6174 17.1064 33.16 14.1223 33.2956 12.9016C34.1094 7.06915 33.7025 -0.390962 26.2424 0.0159537C23.2584 0.151592 22.9871 1.50798 22.4445 2.18617C20.8169 4.62766 19.5961 4.89894 18.9179 5.17021C17.4259 5.57713 15.7983 5.71277 14.1706 5.30585C13.0855 5.03457 12.4073 4.7633 10.9153 4.08511C12.2717 4.35638 14.3062 4.62766 15.6626 4.62766C16.7477 4.62766 19.8674 4.08511 19.4605 3.13564Z" fill="#A5A2A4"/>
<path d="M7.38736 9.9175C7.52299 15.0718 5.62405 17.6489 6.43788 20.226C6.8448 21.718 7.52299 26.4654 8.47246 26.601C9.42193 26.7367 15.1187 27.0079 15.6613 25.7872C15.6613 25.7872 16.882 20.226 21.2225 19.4122C20.8156 19.8191 18.6453 21.5824 17.4246 24.4308C16.4751 26.7367 18.3741 26.7367 18.781 26.7367C20.1374 26.7367 23.1214 26.7367 24.7491 26.4654C25.8342 26.0585 27.0549 22.8032 28.0044 19.5478C28.5469 17.6489 27.1906 14.6648 27.1906 12.9015C27.0549 7.47601 26.2411 7.0691 25.4273 6.66218C23.9352 5.71271 20.8156 8.01857 17.4246 8.1542C15.7969 8.1542 12.9485 7.0691 11.3209 6.79782C10.3714 6.52654 8.20119 5.84835 7.38736 9.9175Z" fill="#F4A884"/>
</svg>
