<svg width="76" height="28" viewBox="0 0 76 28" fill="none" xmlns="http://www.w3.org/2000/svg">
<path d="M75.7159 11.2707C75.4446 9.23613 75.4446 6.52336 70.2904 5.98081C67.9845 5.70953 64.7292 6.25208 64.051 6.52336C62.2877 7.33719 61.6095 8.4223 61.4739 8.96485C59.9818 11.6776 59.168 10.9994 59.0324 10.4569C58.4898 8.55794 57.676 4.21751 54.1494 4.08187C51.7079 4.08187 47.7744 5.70953 46.418 5.57389C47.91 5.03134 49.5377 4.35315 48.8595 3.81059C45.7398 1.23346 37.1946 -0.122923 34.4818 9.10049C34.2105 6.25208 34.2105 5.03134 33.2611 2.86112C32.4472 0.826547 30.277 -0.122922 27.1573 0.0127161C24.1733 0.148355 23.902 1.50474 23.3595 2.18293C21.7318 4.62442 20.5111 4.8957 19.8329 5.16698C18.3408 5.57389 16.7132 5.70953 15.0855 5.30261C14.0004 5.16698 13.3222 4.76006 11.8302 4.08187C13.1866 4.35315 15.2212 4.62442 16.5775 4.62442C17.527 4.62442 20.7823 4.08187 20.2398 3.1324C16.9845 -0.665476 4.09881 -1.34367 2.19987 3.1324C-0.241617 10.7282 0.436574 17.3744 7.62541 25.9197C7.89669 26.1909 8.16796 26.4622 8.57488 26.4622C10.4738 26.8691 16.035 26.7335 19.6972 26.7335C21.0536 26.7335 27.6999 26.1909 29.1919 25.6484C30.8196 24.8345 31.3621 22.6643 32.4472 22.6643C33.9393 22.6643 33.668 24.9702 36.1095 25.784C37.7371 26.4622 46.2824 26.0553 46.6893 26.0553C47.91 26.0553 53.1999 25.9197 54.285 25.3771C55.9127 24.4276 56.5909 21.7149 58.0829 21.7149C59.4393 21.7149 60.5244 24.292 61.7452 25.1058C63.1015 25.9197 64.7292 26.0553 65.1361 26.0553C66.2212 26.0553 70.0191 26.1909 71.1042 25.784C71.7824 25.3771 73.0031 23.7494 73.41 22.8C74.0882 21.3079 75.1733 17.917 75.1733 16.8319C75.4446 16.9675 75.8515 12.6271 75.7159 11.2707Z" fill="#A5A2A4"/>
<path d="M73.0043 19.6804C73.4112 18.5953 73.4112 17.5102 73.2756 16.4251C73.1399 15.7469 73.0043 15.0687 72.4617 14.1192C71.3766 11.949 69.6133 9.50751 67.4431 9.91442C62.5601 10.8639 61.8819 16.0182 60.6612 16.4251C58.6266 17.2389 55.3713 17.5102 54.9644 16.5607C54.4218 15.2043 55.3713 8.96496 51.8447 9.37187C46.5548 10.0501 46.1479 8.01549 42.7569 8.01549C40.3154 8.01549 37.467 8.28676 37.3314 13.8479C37.3314 15.2043 36.1106 16.2894 34.7542 16.4251C32.1771 16.4251 29.8712 16.1538 28.7861 15.34C27.1585 13.9836 27.9723 6.93038 24.9883 7.06602C22.0042 7.20166 21.7329 8.69368 18.0707 8.82932C14.5441 8.82932 9.38984 4.21761 8.1691 10.457C7.21963 15.34 7.08398 17.2389 7.08398 19.5448C7.08398 20.9011 7.76218 25.6485 9.9324 26.7336C10.6106 27.1405 16.1718 27.0049 19.9696 27.0049C21.326 27.0049 24.3101 26.8692 25.6665 26.191C26.4803 25.9198 27.5654 23.8852 28.6505 22.2575C28.9218 21.8506 29.3287 21.5793 29.8712 21.4437C31.6345 21.3081 34.076 21.4437 34.483 21.4437C35.975 21.4437 36.3819 25.1059 38.8234 26.0554C40.451 26.7336 46.2835 26.3267 46.6904 26.3267C47.9112 26.3267 50.4883 26.3267 51.709 25.7841C52.6585 25.2416 53.4723 23.6139 54.2862 21.3081C54.4218 21.0368 54.5574 20.2229 55.3713 20.0873C56.4564 19.9517 59.1692 19.9517 59.7117 20.0873C60.3899 20.0873 60.6612 22.2575 61.0681 23.0714C61.8819 25.2416 64.8659 26.191 65.2729 26.191C66.358 26.191 68.5282 26.3267 69.6133 25.7841C71.241 24.699 72.4617 21.3081 72.5974 20.7655L73.0043 19.6804Z" fill="#F4A884"/>
</svg>
