<svg width="18" height="27" viewBox="0 0 18 27" fill="none" xmlns="http://www.w3.org/2000/svg">
<path d="M0.731951 8.00267C0.596313 7.46011 0.460674 6.91756 0.460674 6.37501C0.460674 5.69681 0.325036 5.01862 0.460674 4.34043C1.13887 9.70162e-07 1.81706 0.135636 6.42877 0.135636C8.3277 0.135636 10.091 0 11.9899 0C15.5165 0 17.4155 1.89894 17.2798 5.2899C17.1442 7.73139 17.1442 10.5798 16.8729 12.8856C16.3304 16.6835 16.466 17.7686 14.974 21.5665C14.0245 24.008 11.583 26.8564 10.6336 26.8564C10.091 26.8564 9.54845 25.3644 9.00589 24.6862C8.73462 24.2793 8.73462 23.8724 8.59898 23.4655C8.46334 20.8883 7.64951 17.3617 5.75057 16.141C2.22397 14.242 1.68142 11.1224 0.731951 8.00267Z" fill="#F4A884"/>
</svg>
