<svg width="75" height="27" viewBox="0 0 75 27" fill="none" xmlns="http://www.w3.org/2000/svg">
<path d="M74.4281 11.6776C74.2925 8.55794 74.2925 6.38772 69.2739 5.98081C66.968 5.70953 63.7127 6.25208 63.0345 6.52336C61.2712 7.33719 60.593 8.4223 60.4574 8.96485C58.9653 11.6776 58.1515 10.9994 58.0159 10.4569C57.4733 8.55794 56.6595 4.21751 53.1329 4.08187C50.6914 4.08187 46.8935 5.70953 45.4015 5.57389C46.7579 5.16698 48.5212 4.35315 47.843 3.81059C44.5877 1.23346 36.1781 -0.122923 33.4653 9.10049C33.194 6.25208 33.194 5.03134 32.3802 2.86112C31.5664 0.826547 29.3962 -0.122922 26.2765 0.0127161C23.2924 0.148355 23.0212 1.50474 22.4786 2.18293C20.851 4.62442 19.6302 4.8957 18.952 5.16698C17.46 5.57389 15.8323 5.57389 14.2047 5.30261C13.1196 5.16698 12.4414 4.76006 10.9494 4.08187C12.3057 4.35315 14.3403 4.62442 15.6967 4.62442C16.6462 4.62442 19.9015 4.08187 19.3589 3.1324C16.1036 -0.665476 3.21795 -1.34367 1.31901 3.1324C-1.12248 10.7282 -0.444285 17.3744 6.74455 25.9197C7.01583 26.1909 7.2871 26.4622 7.69402 26.4622C9.59295 26.8691 15.1541 26.7335 18.8164 26.7335C20.1727 26.7335 26.819 26.1909 28.3111 25.6484C29.9387 24.8345 30.4813 22.6643 31.5664 22.6643C33.0584 22.6643 32.7871 24.9702 35.2286 25.784C36.8563 26.4622 45.4015 26.0553 45.8084 26.0553C47.0292 26.0553 52.319 25.9197 53.4042 25.3771C55.0318 24.4276 55.71 21.7149 57.202 21.7149C58.5584 21.7149 59.6435 24.292 60.8643 25.1058C62.2207 25.9197 63.8483 26.0553 64.2552 26.0553C65.3403 26.0553 69.1382 26.1909 70.2233 25.784C70.9015 25.3771 72.2579 24.5633 73.2074 20.6298C74.2925 16.6962 74.6994 14.9329 74.4281 11.6776Z" fill="#F4A884"/>
</svg>
