<svg width="19" height="27" viewBox="0 0 19 27" fill="none" xmlns="http://www.w3.org/2000/svg">
<path d="M6.97095 13.3061C6.97095 13.3061 6.02148 13.9842 6.02148 14.1199V14.6624H12.2608C12.2608 14.6624 12.2608 13.713 11.7183 13.5773C11.0401 13.3061 9.54808 13.1704 9.54808 13.1704L6.97095 13.3061Z" fill="#5B5864"/>
<path d="M5.3418 15.883L5.61307 17.375C5.61307 17.5106 5.7487 17.6463 5.88434 17.6463H12.5306C12.6663 17.6463 12.8019 17.5106 12.8019 17.375L13.2088 16.0186C13.2088 15.883 13.0732 15.6117 12.9375 15.6117H5.61307C5.47743 15.6117 5.3418 15.7473 5.3418 15.883Z" fill="#5B5864"/>
<path d="M5.61523 18.7315V20.7661C5.61523 20.9017 5.75087 21.0373 5.88651 21.0373L12.6684 20.6304C12.8041 20.6304 12.9397 20.4948 12.9397 20.3591V18.8671C12.9397 18.7315 12.8041 18.5958 12.6684 18.5958L5.88651 18.4602C5.75087 18.4602 5.61523 18.5958 5.61523 18.7315Z" fill="#5B5864"/>
<path d="M5.61523 22.1224V23.7501C5.61523 23.8857 5.75087 23.8857 5.75087 23.8857L12.6684 23.6144C12.8041 23.6144 12.8041 23.4788 12.8041 23.4788V21.5799C12.8041 21.4442 12.6684 21.4442 12.6684 21.4442L5.75087 21.8511C5.61523 21.8511 5.61523 21.9868 5.61523 22.1224Z" fill="#5B5864"/>
<path d="M5.61523 25.1064L6.02215 26.8697C6.02215 27.0054 6.15779 27.0054 6.15779 27.0054L12.1259 26.7341C12.2615 26.7341 12.2615 26.7341 12.2615 26.5985L12.6684 24.9708C12.6684 24.8352 12.6684 24.6995 12.5328 24.6995L5.75087 24.9708C5.75087 24.9708 5.61523 24.9708 5.61523 25.1064Z" fill="#5B5864"/>
<path d="M10.634 1.7766C8.87075 -0.122335 2.22447 -0.52925 1.275 1.7766C0.0542581 5.71012 0.325533 9.23672 4.12341 13.5771C4.25905 13.7128 4.39469 13.8484 4.66596 13.8484C5.75107 14.1197 8.59947 13.4415 9.27766 13.4415C10.7697 13.4415 12.8043 14.2553 14.1607 13.8484C14.9745 13.5771 16.4665 11.1357 17.2803 9.50799C17.5516 8.96544 17.8229 7.33778 17.9585 6.65959C18.3654 3.67554 18.2298 -0.257972 14.2963 0.0133046C12.8043 0.148943 12.533 0.827137 12.3974 1.23405C11.5835 2.4548 10.9053 2.72607 10.634 2.72607C9.82022 2.99735 9.00639 2.99735 8.19256 2.86171C7.65001 2.72607 7.24309 2.59043 6.42926 2.18352C7.10745 2.31916 8.19256 2.4548 8.87075 2.4548C9.27767 2.59043 10.9053 2.31916 10.634 1.7766Z" fill="#F4A884"/>
</svg>
