<svg width="35" height="28" viewBox="0 0 35 28" fill="none" xmlns="http://www.w3.org/2000/svg">
<path d="M21.5809 3C21.5809 3 19.1428 0 10.4742 0C0.451172 0 0.451172 5.04545 0.451172 9.13636C0.451172 11.7273 0.451173 18.6818 7.4944 26.8636C8.44253 27.4091 13.5895 27 15.3503 26.5909C15.7566 26.4545 15.8921 26.3182 16.0275 25.9091C16.4339 24.5455 17.7883 21.4091 22.1226 19.7727C20.6327 21.2727 19.1428 22.3636 17.6529 25.9091C16.8402 27.5455 23.6126 27.2727 26.186 27C26.8633 27 27.5405 26.5909 28.0823 26.1818C29.5722 24.6818 32.1457 21 33.3647 16.9091C34.8546 11.3182 35.5319 2.04545 29.8431 0.681818C25.1025 -0.545455 21.9872 2.04545 21.5809 3Z" fill="#A5A2A4"/>
<path d="M21.5803 3C21.5803 3 19.1423 0 10.4737 0C4.78491 0 2.34687 1.63636 1.2633 3.68182C0.450615 5.31818 4.24312 -0.409091 10.6091 3.27273C17.7878 7.36364 33.7705 4.63636 32.416 2.31818C31.7388 1.36364 30.7907 0.818182 29.5716 0.545455C25.1019 -0.545455 21.9866 2.04545 21.5803 3Z" fill="#F4A884"/>
</svg>
