<svg width="35" height="28" viewBox="0 0 35 28" fill="none" xmlns="http://www.w3.org/2000/svg">
<path d="M21.6655 2.98405C21.6655 2.98405 19.224 0 10.5431 0C0.505861 0 0.505859 5.01862 0.505859 9.08777C0.505859 11.6649 0.505861 18.5825 7.55906 26.7208C8.50853 27.2633 13.6628 26.8564 15.4261 26.4495C15.833 26.3139 15.9686 26.1782 16.1043 25.7713C16.5112 24.4149 17.8676 21.2952 22.208 19.6676C20.716 21.1596 19.224 22.2447 17.7319 25.7713C16.9181 27.399 23.7 27.1277 26.2772 26.8564C26.9554 26.8564 27.6335 26.4495 28.1761 26.0426C29.6681 24.5506 32.2453 20.8883 33.466 16.8192C34.958 11.258 35.6362 2.03458 29.9394 0.678192C25.192 -0.542554 22.208 2.03458 21.6655 2.98405Z" fill="#A5A2A4"/>
<path d="M21.6648 2.98405C21.6648 2.98405 19.6302 0 11.085 0C10.5424 0.542554 17.46 5.15426 18.1382 5.56117C19.0876 6.10373 21.6648 6.51064 23.1568 6.51064C24.6488 6.51064 26.9547 6.10373 27.6329 5.15426C27.6329 5.01862 27.6329 5.01862 27.6329 4.88298C26.0052 3.66224 24.1063 5.01862 21.6648 2.98405Z" fill="#F4A884"/>
</svg>
