<svg width="34" height="27" viewBox="0 0 34 27" fill="none" xmlns="http://www.w3.org/2000/svg">
<path d="M19.6519 3.27128C16.2609 -0.5266 3.51092 -1.34043 1.61198 3.27128C-0.829508 10.867 -0.151316 17.5133 7.03752 26.0585C7.3088 26.3298 7.58007 26.6011 7.98699 26.6011C9.88593 27.008 15.4471 27.1436 15.854 25.9229C15.854 25.9229 17.2104 20.3617 21.4152 19.5479C21.0083 19.9548 18.8381 21.7181 17.753 24.5665C16.8035 26.8724 18.7024 26.8724 19.1093 26.8724C20.4657 26.8724 24.8062 26.8724 26.1625 26.4654C27.2476 26.0585 30.3673 21.1755 32.1306 18.1915C32.8088 17.1064 33.3514 14.1223 33.487 12.9016C34.3008 7.06915 33.8939 -0.390962 26.4338 0.0159537C23.4498 0.151592 23.1785 1.50798 22.6359 2.18617C21.0083 4.62766 19.7875 4.89894 19.1093 5.17021C17.6173 5.57713 15.9897 5.71277 14.362 5.30585C13.2769 5.03458 12.5987 4.7633 11.1067 4.08511C12.4631 4.35638 14.4976 4.62766 15.854 4.62766C16.9391 4.7633 20.0588 4.22075 19.6519 3.27128Z" fill="#F4A884"/>
</svg>
