<svg width="18" height="28" viewBox="0 0 18 28" fill="none" xmlns="http://www.w3.org/2000/svg">
<path d="M1.30421 8.00267C1.16857 7.46011 1.03294 6.91756 1.03294 6.37501C1.03294 5.69681 0.897302 5.01862 1.03294 4.34043C1.71113 9.70162e-07 2.38932 0.135636 7.00103 0.135636C8.89997 0.135636 10.6633 0 12.5622 0C16.0888 0 17.9877 1.89894 17.8521 5.2899C17.7165 7.73139 17.7165 10.5798 17.4452 12.8856C16.9026 16.6835 17.0383 17.7686 15.5462 21.5665C14.5968 24.008 12.1553 26.8564 11.2058 26.8564C10.6633 26.8564 10.1207 25.3644 9.57816 24.6862C9.30688 24.2793 9.30688 23.8724 9.17125 23.4655C9.03561 20.8883 8.22177 17.3617 6.32284 16.141C2.79624 14.242 2.25368 11.1224 1.30421 8.00267Z" fill="#A5A2A4"/>
<path d="M15.9547 9.76594C16.3616 8.27391 16.9041 4.06912 16.9041 2.03455C17.5823 2.84838 17.8536 4.06912 17.718 5.56114C17.5823 8.00263 17.5823 10.851 17.3111 13.1569C16.7685 16.9548 16.9041 18.0399 15.4121 21.8378C14.4626 24.2792 12.0212 27.1277 11.0717 27.1277C10.5291 27.1277 9.98658 25.6356 9.44402 24.9574C9.17275 24.5505 9.17275 24.1436 9.03711 23.7367C9.57966 23.8723 11.4786 22.9229 12.835 19.5319C14.5983 15.4628 14.4626 15.4627 15.9547 9.76594Z" fill="#F4A884"/>
</svg>
